<?xml version="1.0" encoding="UTF-8" standalone="no"?>
<!-- Created with Inkscape (http://www.inkscape.org/) -->

<svg
   xmlns:dc="http://purl.org/dc/elements/1.1/"
   xmlns:cc="http://creativecommons.org/ns#"
   xmlns:rdf="http://www.w3.org/1999/02/22-rdf-syntax-ns#"
   xmlns:svg="http://www.w3.org/2000/svg"
   xmlns="http://www.w3.org/2000/svg"
   xmlns:sodipodi="http://sodipodi.sourceforge.net/DTD/sodipodi-0.dtd"
   xmlns:inkscape="http://www.inkscape.org/namespaces/inkscape"
   width="210mm"
   height="297mm"
   viewBox="0 0 210 297"
   version="1.1"
   id="svg8"
   inkscape:version="0.92.4 (5da689c313, 2019-01-14)"
   sodipodi:docname="7c7c7c-transparent.svg">
  <defs
     id="defs2" />
  <sodipodi:namedview
     id="base"
     pagecolor="#ffffff"
     bordercolor="#666666"
     borderopacity="1.0"
     inkscape:pageopacity="0.0"
     inkscape:pageshadow="2"
     inkscape:zoom="0.99999999"
     inkscape:cx="368.75753"
     inkscape:cy="583.54143"
     inkscape:document-units="mm"
     inkscape:current-layer="layer1"
     showgrid="false"
     inkscape:snap-global="false"
     inkscape:snap-bbox="false"
     inkscape:object-paths="true"
     inkscape:snap-intersection-paths="true"
     inkscape:snap-smooth-nodes="true"
     inkscape:snap-midpoints="true"
     inkscape:window-width="1920"
     inkscape:window-height="1017"
     inkscape:window-x="-8"
     inkscape:window-y="-8"
     inkscape:window-maximized="1"
     inkscape:pagecheckerboard="true" />
  <metadata
     id="metadata5">
    <rdf:RDF>
      <cc:Work
         rdf:about="">
        <dc:format>image/svg+xml</dc:format>
        <dc:type
           rdf:resource="http://purl.org/dc/dcmitype/StillImage" />
        <dc:title></dc:title>
      </cc:Work>
    </rdf:RDF>
  </metadata>
  <g
     inkscape:label="Layer 1"
     inkscape:groupmode="layer"
     id="layer1">
    <path
       id="path5039-7"
       d="m 200.34598,88.011039 c 0.75591,-7.194683 1.77022,-16.84885 2.52612,-24.043527"
       style="fill:#f9f9f9;fill-opacity:1;stroke:#7c7c7c;stroke-width:0.27986437;stroke-miterlimit:4;stroke-dasharray:none;stroke-opacity:1;opacity:1"
       inkscape:connector-curvature="0" />
    <path
       inkscape:connector-curvature="0"
       id="path5051-4"
       d="m 202.73304,63.953779 c -0.7559,7.194677 -1.76948,16.848287 -2.52539,24.04297 l 0.27734,0.0293 c 0.75592,-7.194683 1.7695,-16.848296 2.5254,-24.042973 z"
       style="color:#000000;font-style:normal;font-variant:normal;font-weight:normal;font-stretch:normal;font-size:medium;line-height:normal;font-family:sans-serif;font-variant-ligatures:normal;font-variant-position:normal;font-variant-caps:normal;font-variant-numeric:normal;font-variant-alternates:normal;font-feature-settings:normal;text-indent:0;text-align:start;text-decoration:none;text-decoration-line:none;text-decoration-style:solid;text-decoration-color:#000000;letter-spacing:normal;word-spacing:normal;text-transform:none;writing-mode:lr-tb;direction:ltr;text-orientation:mixed;dominant-baseline:auto;baseline-shift:baseline;text-anchor:start;white-space:normal;shape-padding:0;clip-rule:nonzero;display:inline;overflow:visible;visibility:visible;opacity:1;isolation:auto;mix-blend-mode:normal;color-interpolation:sRGB;color-interpolation-filters:linearRGB;solid-color:#000000;solid-opacity:1;vector-effect:none;fill:#7c7c7c;fill-opacity:1;fill-rule:nonzero;stroke:none;stroke-width:0.27986437;stroke-linecap:butt;stroke-linejoin:miter;stroke-miterlimit:4;stroke-dasharray:none;stroke-dashoffset:0;stroke-opacity:1;color-rendering:auto;image-rendering:auto;shape-rendering:auto;text-rendering:auto;enable-background:accumulate" />
    <path
       inkscape:connector-curvature="0"
       id="path5055-2"
       d="m 109.02211,64.328779 c 0,0.752846 0.3497,1.479389 0.99023,2.166015 0.64053,0.686626 1.57443,1.339191 2.76953,1.958985 2.3902,1.239588 5.83004,2.349411 10.07813,3.28125 8.49618,1.863678 20.22105,3.013672 33.17187,3.013672 12.95082,0 24.67569,-1.149994 33.17188,-3.013672 4.24809,-0.931839 7.68792,-2.041662 10.07812,-3.28125 1.1951,-0.619794 2.129,-1.272358 2.76953,-1.958985 0.64053,-0.686626 0.99024,-1.413168 0.99024,-2.166015 h -0.28125 c 0,0.666656 -0.30592,1.324658 -0.91407,1.976562 -0.60814,0.651905 -1.51675,1.290189 -2.69336,1.900391 -2.3532,1.220404 -5.77622,2.327212 -10.00976,3.255859 -8.46708,1.857295 -20.17709,3.007813 -33.11133,3.007813 -12.93423,0 -24.64425,-1.150518 -33.11133,-3.007813 -4.23354,-0.928647 -7.65655,-2.035455 -10.00976,-3.255859 -1.17661,-0.610202 -2.08522,-1.248486 -2.69336,-1.900391 -0.60814,-0.651904 -0.91406,-1.309906 -0.91406,-1.976562 z"
       style="color:#000000;font-style:normal;font-variant:normal;font-weight:normal;font-stretch:normal;font-size:medium;line-height:normal;font-family:sans-serif;font-variant-ligatures:normal;font-variant-position:normal;font-variant-caps:normal;font-variant-numeric:normal;font-variant-alternates:normal;font-feature-settings:normal;text-indent:0;text-align:start;text-decoration:none;text-decoration-line:none;text-decoration-style:solid;text-decoration-color:#000000;letter-spacing:normal;word-spacing:normal;text-transform:none;writing-mode:lr-tb;direction:ltr;text-orientation:mixed;dominant-baseline:auto;baseline-shift:baseline;text-anchor:start;white-space:normal;shape-padding:0;clip-rule:nonzero;display:inline;overflow:visible;visibility:visible;opacity:1;isolation:auto;mix-blend-mode:normal;color-interpolation:sRGB;color-interpolation-filters:linearRGB;solid-color:#000000;solid-opacity:1;vector-effect:none;fill:#7c7c7c;fill-opacity:1;fill-rule:nonzero;stroke:none;stroke-width:0.27986437;stroke-linecap:butt;stroke-linejoin:miter;stroke-miterlimit:4;stroke-dasharray:none;stroke-dashoffset:0;stroke-opacity:1;color-rendering:auto;image-rendering:auto;shape-rendering:auto;text-rendering:auto;enable-background:accumulate" />
    <path
       style="color:#000000;font-style:normal;font-variant:normal;font-weight:normal;font-stretch:normal;font-size:medium;line-height:normal;font-family:sans-serif;font-variant-ligatures:normal;font-variant-position:normal;font-variant-caps:normal;font-variant-numeric:normal;font-variant-alternates:normal;font-feature-settings:normal;text-indent:0;text-align:start;text-decoration:none;text-decoration-line:none;text-decoration-style:solid;text-decoration-color:#000000;letter-spacing:normal;word-spacing:normal;text-transform:none;writing-mode:lr-tb;direction:ltr;text-orientation:mixed;dominant-baseline:auto;baseline-shift:baseline;text-anchor:start;white-space:normal;shape-padding:0;clip-rule:nonzero;display:inline;overflow:visible;visibility:visible;opacity:1;isolation:auto;mix-blend-mode:normal;color-interpolation:sRGB;color-interpolation-filters:linearRGB;solid-color:#000000;solid-opacity:1;vector-effect:none;fill:#7c7c7c;fill-opacity:1;fill-rule:nonzero;stroke:none;stroke-width:0.97866112;stroke-linecap:butt;stroke-linejoin:miter;stroke-miterlimit:4;stroke-dasharray:none;stroke-dashoffset:0;stroke-opacity:1;color-rendering:auto;image-rendering:auto;shape-rendering:auto;text-rendering:auto;enable-background:accumulate"
       d="M 589.72656 203.74219 C 540.77858 203.74219 496.46506 208.09485 464.35352 215.13867 C 448.29774 218.66058 435.2975 222.84815 426.26367 227.5332 C 421.74676 229.87573 418.21582 232.34238 415.79492 234.9375 C 413.37402 237.53262 412.05273 240.28545 412.05273 243.13086 C 412.05273 243.41266 412.07548 243.69285 412.10156 243.97266 L 412.09766 243.97266 L 412.10547 244.03125 C 412.11303 244.12706 412.12343 244.22285 412.13477 244.31836 L 416.78125 287.1875 C 455.73942 288.18714 490.68453 292.06804 516.98828 297.83789 C 532.34904 301.20734 544.76842 305.22234 553.30664 309.65039 C 557.57581 311.86442 560.87355 314.18935 563.08008 316.55469 C 564.90597 318.51193 565.96855 320.48573 566.28516 322.47852 C 566.15476 323.72014 565.98416 325.34315 565.84961 326.62305 C 565.84931 326.62593 565.84766 326.63017 565.84766 326.63281 C 565.31505 328.06364 564.3983 329.48343 563.08008 330.89648 C 560.87355 333.26183 557.57581 335.57894 553.30664 337.79297 C 544.76842 342.22102 532.34904 346.23602 516.98828 349.60547 C 501.91745 352.91133 483.99435 355.5929 464.125 357.47461 C 466.40995 358.04108 468.74436 358.59623 471.18164 359.13086 C 501.54572 365.79133 543.44515 369.9082 589.72656 369.9082 C 636.00801 369.9082 677.90939 365.79133 708.27344 359.13086 C 723.4555 355.8006 735.7517 351.83981 744.29688 347.4082 C 748.56947 345.19238 751.90307 342.85957 754.19531 340.40234 C 756.47093 337.963 757.71631 335.37356 757.73438 332.69531 L 757.73828 332.69531 C 760.4507 306.87919 763.99958 273.08791 766.80078 246.42383 C 767.19272 245.34328 767.40234 244.24498 767.40234 243.13086 C 767.40234 240.28545 766.08106 237.53262 763.66016 234.9375 C 761.23907 232.34238 757.70832 229.87573 753.19141 227.5332 C 744.15758 222.84815 731.15734 218.66058 715.10156 215.13867 C 682.98998 208.09485 638.67454 203.74219 589.72656 203.74219 z M 589.72461 206.33008 C 636.65451 206.33008 679.14372 210.50718 709.86523 217.24609 C 725.22599 220.61554 737.64538 224.63054 746.18359 229.05859 C 750.45276 231.27262 753.74855 233.5956 755.95508 235.96094 C 757.78097 237.91818 758.8455 239.89198 759.16211 241.88477 C 759.03172 243.12639 758.86111 244.7494 758.72656 246.0293 C 758.72626 246.0322 758.72461 246.03642 758.72461 246.03906 C 758.192 247.46989 757.2733 248.88968 755.95508 250.30273 C 753.74855 252.66808 750.45276 254.98519 746.18359 257.19922 C 737.64538 261.62727 725.22404 265.64227 709.86328 269.01172 C 681.06188 275.32945 641.92011 279.39366 598.4707 279.87695 C 595.57407 279.90908 592.65576 279.92578 589.72266 279.92578 C 542.79275 279.92578 500.3055 275.75063 469.58398 269.01172 C 454.22323 265.64223 441.80388 261.62727 433.26562 257.19922 C 432.19837 256.64571 431.1939 256.08495 430.25 255.51953 C 429.77813 255.23686 429.32129 254.95335 428.88086 254.66797 C 426.67879 253.24105 424.87325 251.78108 423.49414 250.30273 C 421.28761 247.9374 420.17777 245.54972 420.17773 243.13086 C 420.17777 240.712 421.28761 238.32627 423.49414 235.96094 C 425.7007 233.5956 428.99651 231.27263 433.26562 229.05859 C 441.80388 224.63055 454.22323 220.61554 469.58398 217.24609 C 500.3055 210.50718 542.79474 206.33009 589.72461 206.33008 z "
       transform="scale(0.26458333)"
       id="path5130-3" />
    <path
       style="color:#000000;font-style:normal;font-variant:normal;font-weight:normal;font-stretch:normal;font-size:medium;line-height:normal;font-family:sans-serif;font-variant-ligatures:normal;font-variant-position:normal;font-variant-caps:normal;font-variant-numeric:normal;font-variant-alternates:normal;font-feature-settings:normal;text-indent:0;text-align:start;text-decoration:none;text-decoration-line:none;text-decoration-style:solid;text-decoration-color:#000000;letter-spacing:normal;word-spacing:normal;text-transform:none;writing-mode:lr-tb;direction:ltr;text-orientation:mixed;dominant-baseline:auto;baseline-shift:baseline;text-anchor:start;white-space:normal;shape-padding:0;clip-rule:nonzero;display:inline;overflow:visible;visibility:visible;opacity:1;isolation:auto;mix-blend-mode:normal;color-interpolation:sRGB;color-interpolation-filters:linearRGB;solid-color:#000000;solid-opacity:1;vector-effect:none;fill:#7c7c7c;fill-opacity:1;fill-rule:nonzero;stroke:none;stroke-width:0.97866112;stroke-linecap:butt;stroke-linejoin:miter;stroke-miterlimit:4;stroke-dasharray:none;stroke-dashoffset:0;stroke-opacity:1;color-rendering:auto;image-rendering:auto;shape-rendering:auto;text-rendering:auto;enable-background:accumulate"
       d="M 752.32031 343.01562 C 752.31653 343.0606 752.31704 343.03819 752.3125 343.08203 C 752.30872 345.38822 751.25305 347.66555 749.14453 349.92578 C 747.0314 352.191 743.87016 354.41648 739.77734 356.53906 C 731.59172 360.7843 719.6808 364.63182 704.94922 367.86328 C 675.48606 374.32616 634.73703 378.33008 589.72656 378.33008 C 544.71609 378.33008 503.96515 374.32616 474.50195 367.86328 C 462.67914 365.26988 452.71391 362.27609 444.99219 359.00195 C 441.03861 359.2577 437.00938 359.47289 432.94141 359.66602 C 434.83946 361.16008 437.14217 362.60493 439.83594 364.00195 C 448.12255 368.2995 460.05315 372.14945 474.77539 375.37891 C 504.21991 381.83763 544.84503 385.82422 589.72461 385.82422 C 634.60423 385.82422 675.2313 381.83763 704.67578 375.37891 C 719.39799 372.14945 731.32862 368.2995 739.61523 364.00195 C 743.75854 361.85318 746.99563 359.59401 749.21875 357.21094 C 751.42675 354.84405 752.61254 352.33352 752.62891 349.73438 L 752.65234 349.73438 C 753.11515 345.3299 752.87417 347.60604 753.3457 343.11914 L 753.32227 343.11914 C 753.32238 343.10024 753.3457 343.08499 753.3457 343.06836 L 752.83594 343.06836 L 752.32031 343.01562 z "
       transform="scale(0.26458333)"
       id="path5124-3" />
    <path
       style="color:#000000;font-style:normal;font-variant:normal;font-weight:normal;font-stretch:normal;font-size:medium;line-height:normal;font-family:sans-serif;font-variant-ligatures:normal;font-variant-position:normal;font-variant-caps:normal;font-variant-numeric:normal;font-variant-alternates:normal;font-feature-settings:normal;text-indent:0;text-align:start;text-decoration:none;text-decoration-line:none;text-decoration-style:solid;text-decoration-color:#000000;letter-spacing:normal;word-spacing:normal;text-transform:none;writing-mode:lr-tb;direction:ltr;text-orientation:mixed;dominant-baseline:auto;baseline-shift:baseline;text-anchor:start;white-space:normal;shape-padding:0;clip-rule:nonzero;display:inline;overflow:visible;visibility:visible;opacity:1;isolation:auto;mix-blend-mode:normal;color-interpolation:sRGB;color-interpolation-filters:linearRGB;solid-color:#000000;solid-opacity:1;vector-effect:none;fill:#7c7c7c;fill-opacity:1;fill-rule:nonzero;stroke:none;stroke-width:0.97866112;stroke-linecap:butt;stroke-linejoin:miter;stroke-miterlimit:4;stroke-dasharray:none;stroke-dashoffset:0;stroke-opacity:1;color-rendering:auto;image-rendering:auto;shape-rendering:auto;text-rendering:auto;enable-background:accumulate"
       d="M 431.96094 362.33398 L 431.4668 362.38672 L 430.96484 362.38672 C 430.96484 362.40562 430.98633 362.42087 430.98633 362.4375 L 430.97266 362.4375 L 437.4043 423.66016 L 559.95898 423.66016 C 559.95898 425.92051 558.99142 428.13132 557.16406 430.27539 L 559.26367 430.27539 C 559.26367 434.75226 555.47825 439.0324 548.60352 442.97852 L 555.10938 442.97852 C 555.10934 458.63526 507.85026 471.86744 442.92188 476.19531 L 451.39062 556.79492 L 451.41211 556.79492 C 451.43101 559.01487 452.44317 561.16161 454.32031 563.17383 C 456.21435 565.20411 458.9716 567.12732 462.49219 568.95312 C 469.5333 572.60472 479.65432 575.86789 492.15234 578.60938 C 517.1484 584.0924 551.63354 587.47461 589.72656 587.47461 C 627.81959 587.47461 662.30277 584.0924 687.29883 578.60938 C 699.79686 575.86789 709.91983 572.60472 716.96094 568.95312 C 720.48153 567.12732 723.23686 565.20411 725.13086 563.17383 C 727.008 561.16161 728.02268 559.01487 728.04102 556.79492 L 728.06445 556.79492 C 734.63822 494.22617 742.11108 423.07949 748.48242 362.4375 L 748.4668 362.4375 C 748.46691 362.4186 748.49023 362.40335 748.49023 362.38672 L 747.98828 362.38672 L 747.49414 362.33398 C 747.49214 362.3491 747.48633 362.3682 747.48633 362.38672 C 747.48633 364.62938 746.45852 366.83928 744.4082 369.03711 C 742.35789 371.23498 739.2915 373.39167 735.32031 375.45117 C 727.37801 379.57018 715.82103 383.30798 701.52734 386.44336 C 672.93994 392.71416 633.40107 396.60156 589.72852 396.60156 C 546.05596 396.60156 506.51709 392.71416 477.92969 386.44336 C 463.63574 383.30798 452.07706 379.57018 444.13477 375.45117 C 440.16362 373.39167 437.09722 371.23498 435.04688 369.03711 C 432.99656 366.83928 431.96875 364.62938 431.96875 362.38672 L 431.96094 362.33398 z "
       transform="scale(0.26458333)"
       id="path5120-78" />
    <path
       style="color:#000000;font-style:normal;font-variant:normal;font-weight:normal;font-stretch:normal;font-size:medium;line-height:normal;font-family:sans-serif;font-variant-ligatures:normal;font-variant-position:normal;font-variant-caps:normal;font-variant-numeric:normal;font-variant-alternates:normal;font-feature-settings:normal;text-indent:0;text-align:start;text-decoration:none;text-decoration-line:none;text-decoration-style:solid;text-decoration-color:#000000;letter-spacing:normal;word-spacing:normal;text-transform:none;writing-mode:lr-tb;direction:ltr;text-orientation:mixed;dominant-baseline:auto;baseline-shift:baseline;text-anchor:start;white-space:normal;shape-padding:0;clip-rule:nonzero;display:inline;overflow:visible;visibility:visible;opacity:1;isolation:auto;mix-blend-mode:normal;color-interpolation:sRGB;color-interpolation-filters:linearRGB;solid-color:#000000;solid-opacity:1;vector-effect:none;fill:#7c7c7c;fill-opacity:1;fill-rule:nonzero;stroke:none;stroke-width:0.97866112;stroke-linecap:butt;stroke-linejoin:miter;stroke-miterlimit:4;stroke-dasharray:none;stroke-dashoffset:0;stroke-opacity:1;color-rendering:auto;image-rendering:auto;shape-rendering:auto;text-rendering:auto;enable-background:accumulate"
       d="M 456.57227 571.33789 L 456.08594 571.38867 L 455.59766 571.38867 C 455.59766 571.40757 455.61914 571.42289 455.61914 571.44141 L 455.59766 571.44141 L 464.0332 651.98438 L 530.49219 651.98438 C 530.49216 661.704 508.91175 670.31495 475.70508 675.64844 C 482.02254 678.86689 490.98964 681.7466 502.03711 684.16992 C 524.50243 689.09778 555.49425 692.13477 589.72656 692.13477 C 623.95888 692.13477 654.95065 689.09778 677.41602 684.16992 C 688.6487 681.70597 697.74767 678.77227 704.08008 675.48828 C 707.24626 673.84623 709.72507 672.11261 711.43164 670.2832 C 713.12321 668.46994 714.03637 666.53266 714.05273 664.52539 L 714.07422 664.52539 L 723.85547 571.44141 L 723.83398 571.44141 C 723.83414 571.42251 723.85547 571.40719 723.85547 571.38867 L 723.36719 571.38867 L 722.88086 571.33789 L 722.87305 571.4043 C 722.86927 573.27225 722.0158 575.12022 720.29688 576.96289 C 718.57326 578.81047 715.98966 580.62843 712.64062 582.36523 C 705.94274 585.83888 696.1839 588.99765 684.11719 591.64453 C 659.98377 596.93833 626.60156 600.21484 589.72656 600.21484 C 552.85156 600.21484 519.4674 596.93833 495.33398 591.64453 C 483.26728 588.99765 473.50851 585.83888 466.81055 582.36523 C 463.46158 580.62843 460.87787 578.81047 459.1543 576.96289 C 457.43533 575.12022 456.58277 573.27225 456.57812 571.4043 L 456.57227 571.33789 z "
       transform="scale(0.26458333)"
       id="path5116-8" />
    <path
       id="path5037-3"
       d="m 11.522382,63.806284 2.54524,23.473954"
       style="fill:#f9f9f9;fill-opacity:1;stroke:#7c7c7c;stroke-width:0.27986437;stroke-miterlimit:4;stroke-dasharray:none;stroke-opacity:1;opacity:1"
       inkscape:connector-curvature="0" />
    <path
       inkscape:connector-curvature="0"
       id="path5053-7"
       d="m 11.661029,63.79134 -0.277344,0.0293 2.544922,23.474608 0.277344,-0.0293 z"
       style="color:#000000;font-style:normal;font-variant:normal;font-weight:normal;font-stretch:normal;font-size:medium;line-height:normal;font-family:sans-serif;font-variant-ligatures:normal;font-variant-position:normal;font-variant-caps:normal;font-variant-numeric:normal;font-variant-alternates:normal;font-feature-settings:normal;text-indent:0;text-align:start;text-decoration:none;text-decoration-line:none;text-decoration-style:solid;text-decoration-color:#000000;letter-spacing:normal;word-spacing:normal;text-transform:none;writing-mode:lr-tb;direction:ltr;text-orientation:mixed;dominant-baseline:auto;baseline-shift:baseline;text-anchor:start;white-space:normal;shape-padding:0;clip-rule:nonzero;display:inline;overflow:visible;visibility:visible;opacity:1;isolation:auto;mix-blend-mode:normal;color-interpolation:sRGB;color-interpolation-filters:linearRGB;solid-color:#000000;solid-opacity:1;vector-effect:none;fill:#7c7c7c;fill-opacity:1;fill-rule:nonzero;stroke:none;stroke-width:0.27986437;stroke-linecap:butt;stroke-linejoin:miter;stroke-miterlimit:4;stroke-dasharray:none;stroke-dashoffset:0;stroke-opacity:1;color-rendering:auto;image-rendering:auto;shape-rendering:auto;text-rendering:auto;enable-background:accumulate" />
    <path
       inkscape:connector-curvature="0"
       id="path5055-7"
       d="m 11.371966,63.597981 c 10e-7,0.752846 0.349701,1.479389 0.990235,2.166015 0.640533,0.686626 1.574432,1.339191 2.769531,1.958985 2.390198,1.239588 5.830035,2.349411 10.078125,3.28125 8.496179,1.863678 20.221054,3.013672 33.171876,3.013672 12.95082,0 24.67569,-1.149994 33.171875,-3.013672 4.2481,-0.931839 7.687916,-2.041662 10.078122,-3.28125 1.1951,-0.619794 2.129,-1.272358 2.76953,-1.958985 0.64052,-0.686626 0.99024,-1.413168 0.99024,-2.166015 h -0.28125 c 0,0.666656 -0.30592,1.324658 -0.91407,1.976562 -0.60815,0.651905 -1.51675,1.290189 -2.69336,1.900391 -2.353206,1.220404 -5.776222,2.327212 -10.009762,3.255859 -8.467076,1.857295 -20.177084,3.007813 -33.111325,3.007813 -12.934236,0 -24.64425,-1.150518 -33.111329,-3.007813 -4.233539,-0.928647 -7.656558,-2.035455 -10.009766,-3.255859 -1.176604,-0.610202 -2.085217,-1.248486 -2.693359,-1.900391 -0.608143,-0.651904 -0.914062,-1.309906 -0.914063,-1.976562 z"
       style="color:#000000;font-style:normal;font-variant:normal;font-weight:normal;font-stretch:normal;font-size:medium;line-height:normal;font-family:sans-serif;font-variant-ligatures:normal;font-variant-position:normal;font-variant-caps:normal;font-variant-numeric:normal;font-variant-alternates:normal;font-feature-settings:normal;text-indent:0;text-align:start;text-decoration:none;text-decoration-line:none;text-decoration-style:solid;text-decoration-color:#000000;letter-spacing:normal;word-spacing:normal;text-transform:none;writing-mode:lr-tb;direction:ltr;text-orientation:mixed;dominant-baseline:auto;baseline-shift:baseline;text-anchor:start;white-space:normal;shape-padding:0;clip-rule:nonzero;display:inline;overflow:visible;visibility:visible;opacity:1;isolation:auto;mix-blend-mode:normal;color-interpolation:sRGB;color-interpolation-filters:linearRGB;solid-color:#000000;solid-opacity:1;vector-effect:none;fill:#7c7c7c;fill-opacity:1;fill-rule:nonzero;stroke:none;stroke-width:0.27986437;stroke-linecap:butt;stroke-linejoin:miter;stroke-miterlimit:4;stroke-dasharray:none;stroke-dashoffset:0;stroke-opacity:1;color-rendering:auto;image-rendering:auto;shape-rendering:auto;text-rendering:auto;enable-background:accumulate" />
    <path
       style="color:#000000;font-style:normal;font-variant:normal;font-weight:normal;font-stretch:normal;font-size:medium;line-height:normal;font-family:sans-serif;font-variant-ligatures:normal;font-variant-position:normal;font-variant-caps:normal;font-variant-numeric:normal;font-variant-alternates:normal;font-feature-settings:normal;text-indent:0;text-align:start;text-decoration:none;text-decoration-line:none;text-decoration-style:solid;text-decoration-color:#000000;letter-spacing:normal;word-spacing:normal;text-transform:none;writing-mode:lr-tb;direction:ltr;text-orientation:mixed;dominant-baseline:auto;baseline-shift:baseline;text-anchor:start;white-space:normal;shape-padding:0;clip-rule:nonzero;display:inline;overflow:visible;visibility:visible;opacity:1;isolation:auto;mix-blend-mode:normal;color-interpolation:sRGB;color-interpolation-filters:linearRGB;solid-color:#000000;solid-opacity:1;vector-effect:none;fill:#7c7c7c;fill-opacity:1;fill-rule:nonzero;stroke:none;stroke-width:0.97866112;stroke-linecap:butt;stroke-linejoin:miter;stroke-miterlimit:4;stroke-dasharray:none;stroke-dashoffset:0;stroke-opacity:1;color-rendering:auto;image-rendering:auto;shape-rendering:auto;text-rendering:auto;enable-background:accumulate"
       d="M 220.6543 200.98047 C 171.70631 200.98047 127.3928 205.33313 95.28125 212.37695 C 79.225481 215.89886 66.225225 220.08643 57.191406 224.77148 C 52.674497 227.11401 49.143568 229.58066 46.722656 232.17578 C 44.301737 234.7709 42.98048 237.52373 42.980469 240.36914 C 42.980469 240.65094 43.003558 240.93113 43.029297 241.21094 L 43.025391 241.21094 L 43.03125 241.26953 C 43.040321 241.36534 43.050028 241.46113 43.0625 241.55664 L 52.642578 329.93359 L 52.646484 329.93359 C 52.664626 332.61185 53.911888 335.20128 56.1875 337.64062 C 58.479787 340.09785 61.813348 342.43066 66.085938 344.64648 C 74.631116 349.0781 86.927329 353.03888 102.10938 356.36914 C 132.47344 363.02961 174.37288 367.14648 220.6543 367.14648 C 263.64137 367.14648 302.83473 363.59067 332.5293 357.74805 C 311.47557 355.85751 292.52509 353.07481 276.70898 349.60547 C 261.34824 346.23602 248.92888 342.22102 240.39062 337.79297 C 239.32335 337.23946 238.31694 336.6787 237.37305 336.11328 C 236.9011 335.83057 236.44432 335.5471 236.00391 335.26172 C 233.80185 333.8348 231.99628 332.37483 230.61719 330.89648 C 228.41064 328.53115 227.30079 326.14347 227.30078 323.72461 C 227.30079 321.30575 228.41064 318.92002 230.61719 316.55469 C 232.82374 314.18935 236.1215 311.86442 240.39062 309.65039 C 248.92888 305.22235 261.34824 301.20734 276.70898 297.83789 C 306.62566 291.27552 347.71276 287.15533 393.18164 286.94336 C 394.76331 271.88561 396.32319 257.03913 397.72852 243.66211 C 398.12045 242.58156 398.33008 241.48326 398.33008 240.36914 C 398.33008 237.52373 397.00879 234.7709 394.58789 232.17578 C 392.16684 229.58066 388.63605 227.11402 384.11914 224.77148 C 375.08533 220.08643 362.08507 215.89886 346.0293 212.37695 C 313.91774 205.33313 269.60227 200.98047 220.6543 200.98047 z M 220.65234 203.56836 C 267.58225 203.56836 310.07147 207.74351 340.79297 214.48242 C 356.15376 217.85187 368.57311 221.86687 377.11133 226.29492 C 381.38052 228.50895 384.6782 230.83388 386.88477 233.19922 C 388.71066 235.15646 389.77323 237.13026 390.08984 239.12305 C 389.95945 240.36467 389.79084 241.98768 389.65625 243.26758 C 389.65599 243.27048 389.6543 243.2747 389.6543 243.27734 C 389.12165 244.70817 388.20303 246.12796 386.88477 247.54102 C 384.67828 249.90636 381.38048 252.22347 377.11133 254.4375 C 368.57311 258.86555 356.15372 262.88055 340.79297 266.25 C 311.99159 272.56773 272.84786 276.63194 229.39844 277.11523 C 226.50181 277.14736 223.58544 277.16406 220.65234 277.16406 C 173.72245 277.16406 131.23517 272.98891 100.51367 266.25 C 85.152926 262.88051 72.733564 258.86555 64.195312 254.4375 C 63.128035 253.88399 62.121626 253.32323 61.177734 252.75781 C 60.705868 252.47514 60.249003 252.19163 59.808594 251.90625 C 57.606535 250.47933 55.800972 249.01936 54.421875 247.54102 C 52.215326 245.17568 51.105476 242.788 51.105469 240.36914 C 51.105476 237.95028 52.215326 235.56455 54.421875 233.19922 C 56.628424 230.83388 59.926186 228.50895 64.195312 226.29492 C 72.733564 221.86688 85.152926 217.85187 100.51367 214.48242 C 131.23517 207.74351 173.72245 203.56837 220.65234 203.56836 z "
       transform="scale(0.26458333)"
       id="path5130-0" />
    <path
       style="color:#000000;font-style:normal;font-variant:normal;font-weight:normal;font-stretch:normal;font-size:medium;line-height:normal;font-family:sans-serif;font-variant-ligatures:normal;font-variant-position:normal;font-variant-caps:normal;font-variant-numeric:normal;font-variant-alternates:normal;font-feature-settings:normal;text-indent:0;text-align:start;text-decoration:none;text-decoration-line:none;text-decoration-style:solid;text-decoration-color:#000000;letter-spacing:normal;word-spacing:normal;text-transform:none;writing-mode:lr-tb;direction:ltr;text-orientation:mixed;dominant-baseline:auto;baseline-shift:baseline;text-anchor:start;white-space:normal;shape-padding:0;clip-rule:nonzero;display:inline;overflow:visible;visibility:visible;opacity:1;isolation:auto;mix-blend-mode:normal;color-interpolation:sRGB;color-interpolation-filters:linearRGB;solid-color:#000000;solid-opacity:1;vector-effect:none;fill:#7c7c7c;fill-opacity:1;fill-rule:nonzero;stroke:none;stroke-width:0.97866112;stroke-linecap:butt;stroke-linejoin:miter;stroke-miterlimit:4;stroke-dasharray:none;stroke-dashoffset:0;stroke-opacity:1;color-rendering:auto;image-rendering:auto;shape-rendering:auto;text-rendering:auto;enable-background:accumulate"
       d="M 58.0625 340.25391 L 57.544922 340.30664 L 57.035156 340.30664 C 57.035156 340.32554 57.058216 340.33951 57.058594 340.35742 L 57.035156 340.35742 L 57.728516 346.97266 L 57.751953 346.97266 C 57.768205 349.57181 58.954109 352.08233 61.162109 354.44922 C 63.385209 356.83229 66.622318 359.09146 70.765625 361.24023 C 79.052247 365.53778 90.982817 369.38777 105.70508 372.61719 C 135.14959 379.07596 175.77469 383.0625 220.6543 383.0625 C 265.53392 383.0625 306.16098 379.07596 335.60547 372.61719 C 350.32771 369.38777 362.25836 365.53778 370.54492 361.24023 C 371.24888 360.87515 371.91725 360.50629 372.56836 360.13477 C 367.21916 359.96677 361.95541 359.74141 356.7793 359.4668 C 350.68684 361.49528 343.69411 363.38725 335.87891 365.10156 C 306.41576 371.56444 265.66672 375.56836 220.65625 375.56836 C 175.64581 375.56836 134.89481 371.56444 105.43164 365.10156 C 90.700059 361.8701 78.789152 358.02255 70.603516 353.77734 C 66.510601 351.65476 63.34947 349.42928 61.236328 347.16406 C 59.127809 344.90383 58.074942 342.6265 58.070312 340.32031 L 58.0625 340.25391 z "
       transform="scale(0.26458333)"
       id="path5124-7" />
    <path
       style="color:#000000;font-style:normal;font-variant:normal;font-weight:normal;font-stretch:normal;font-size:medium;line-height:normal;font-family:sans-serif;font-variant-ligatures:normal;font-variant-position:normal;font-variant-caps:normal;font-variant-numeric:normal;font-variant-alternates:normal;font-feature-settings:normal;text-indent:0;text-align:start;text-decoration:none;text-decoration-line:none;text-decoration-style:solid;text-decoration-color:#000000;letter-spacing:normal;word-spacing:normal;text-transform:none;writing-mode:lr-tb;direction:ltr;text-orientation:mixed;dominant-baseline:auto;baseline-shift:baseline;text-anchor:start;white-space:normal;shape-padding:0;clip-rule:nonzero;display:inline;overflow:visible;visibility:visible;opacity:1;isolation:auto;mix-blend-mode:normal;color-interpolation:sRGB;color-interpolation-filters:linearRGB;solid-color:#000000;solid-opacity:1;vector-effect:none;fill:#7c7c7c;fill-opacity:1;fill-rule:nonzero;stroke:none;stroke-width:0.97866112;stroke-linecap:butt;stroke-linejoin:miter;stroke-miterlimit:4;stroke-dasharray:none;stroke-dashoffset:0;stroke-opacity:1;color-rendering:auto;image-rendering:auto;shape-rendering:auto;text-rendering:auto;enable-background:accumulate"
       d="M 62.888672 359.57227 L 62.394531 359.625 L 61.892578 359.625 C 61.892578 359.6439 61.915638 359.65787 61.916016 359.67578 L 61.900391 359.67578 L 82.318359 554.0332 L 82.341797 554.0332 C 82.360317 556.25311 83.37286 558.39989 85.25 560.41211 C 87.144001 562.4424 89.901306 564.36559 93.421875 566.19141 C 100.46301 569.843 110.584 573.10618 123.08203 575.84766 C 148.0781 581.33065 182.56323 584.71289 220.65625 584.71289 C 258.74928 584.71289 293.23246 581.33065 318.22852 575.84766 C 330.72654 573.10618 340.84954 569.843 347.89062 566.19141 C 351.41122 564.36559 354.16651 562.4424 356.06055 560.41211 C 357.93769 558.39989 358.95233 556.25311 358.9707 554.0332 L 358.99414 554.0332 C 361.59719 529.25748 364.3287 503.24731 367.07812 477.07227 C 293.9129 474.01586 238.58987 459.91773 238.58984 442.97852 L 245.0957 442.97852 C 238.22197 439.03256 234.43751 434.75209 234.4375 430.27539 L 236.53711 430.27539 C 234.70975 428.13132 233.74219 425.92051 233.74219 423.66016 L 372.68945 423.66016 C 374.93078 402.32382 377.26506 380.10722 379.34375 360.32227 C 379.01906 360.31497 378.7011 360.30261 378.37695 360.29492 C 378.19247 362.30827 377.18377 364.29671 375.33789 366.27539 C 373.28757 368.47326 370.22119 370.62995 366.25 372.68945 C 358.30772 376.80846 346.75071 380.54626 332.45703 383.68164 C 303.86963 389.95244 264.33077 393.83984 220.6582 393.83984 C 176.98566 393.83984 137.44675 389.95244 108.85938 383.68164 C 94.565407 380.54626 83.006771 376.80846 75.064453 372.68945 C 71.093292 370.62995 68.026884 368.47326 65.976562 366.27539 C 63.926246 364.07756 62.898437 361.86766 62.898438 359.625 L 62.888672 359.57227 z "
       transform="scale(0.26458333)"
       id="path5120-7" />
    <path
       style="color:#000000;font-style:normal;font-variant:normal;font-weight:normal;font-stretch:normal;font-size:medium;line-height:normal;font-family:sans-serif;font-variant-ligatures:normal;font-variant-position:normal;font-variant-caps:normal;font-variant-numeric:normal;font-variant-alternates:normal;font-feature-settings:normal;text-indent:0;text-align:start;text-decoration:none;text-decoration-line:none;text-decoration-style:solid;text-decoration-color:#000000;letter-spacing:normal;word-spacing:normal;text-transform:none;writing-mode:lr-tb;direction:ltr;text-orientation:mixed;dominant-baseline:auto;baseline-shift:baseline;text-anchor:start;white-space:normal;shape-padding:0;clip-rule:nonzero;display:inline;overflow:visible;visibility:visible;opacity:1;isolation:auto;mix-blend-mode:normal;color-interpolation:sRGB;color-interpolation-filters:linearRGB;solid-color:#000000;solid-opacity:1;vector-effect:none;fill:#7c7c7c;fill-opacity:1;fill-rule:nonzero;stroke:none;stroke-width:0.97866112;stroke-linecap:butt;stroke-linejoin:miter;stroke-miterlimit:4;stroke-dasharray:none;stroke-dashoffset:0;stroke-opacity:1;color-rendering:auto;image-rendering:auto;shape-rendering:auto;text-rendering:auto;enable-background:accumulate"
       d="M 87.5 568.57617 L 87.013672 568.62695 L 86.525391 568.62695 C 86.525391 568.64585 86.54845 568.66117 86.548828 568.67969 L 86.525391 568.67969 L 96.351562 662.49609 L 96.646484 662.4668 C 96.856059 664.21381 97.463498 665.92887 98.949219 667.52148 C 100.6558 669.35089 103.13653 671.08451 106.30273 672.72656 C 112.63512 676.01056 121.73216 678.94425 132.96484 681.4082 C 155.43019 686.33606 186.42197 689.37305 220.6543 689.37305 C 254.88661 689.37305 285.87839 686.33606 308.34375 681.4082 C 314.7558 680.00169 320.44389 678.43653 325.34766 676.74609 C 288.01059 671.54712 263.209 662.40339 263.20898 651.98438 L 346.03125 651.98438 L 354.78516 568.67969 L 354.76172 568.67969 C 354.76187 568.66079 354.78516 568.64547 354.78516 568.62695 L 354.29688 568.62695 L 353.81055 568.57617 L 353.80273 568.64258 C 353.79895 570.51053 352.94545 572.3585 351.22656 574.20117 C 349.50291 576.04876 346.91931 577.86675 343.57031 579.60352 C 336.87238 583.07717 327.11358 586.23593 315.04688 588.88281 C 290.91345 594.17661 257.53125 597.45312 220.65625 597.45312 C 183.78126 597.45312 150.3971 594.17661 126.26367 588.88281 C 114.19696 586.23593 104.43818 583.07717 97.740234 579.60352 C 94.391267 577.86675 91.807574 576.04876 90.083984 574.20117 C 88.365025 572.3585 87.512431 570.51053 87.507812 568.64258 L 87.5 568.57617 z "
       transform="scale(0.26458333)"
       id="path5116-4" />
    <g
       id="g4693"
       transform="matrix(0.8,0,0,0.8,21,27.968205)" />
    <path
       id="path5041"
       d="m 149.31411,109.3346 c -1e-5,5.36849 -19.8401,9.72049 -44.31411,9.72049 -24.473997,0 -44.314101,-4.352 -44.31411,-9.72049"
       style="fill:#f9f9f9;fill-opacity:1;stroke:#7c7c7c;stroke-width:0.27986437;stroke-miterlimit:4;stroke-dasharray:none;stroke-opacity:1;opacity:1" />
    <path
       id="path5039"
       d="m 149.31411,109.3346 c 0.75591,-7.19468 1.77022,-16.848846 2.52612,-24.043523"
       style="fill:#f9f9f9;fill-opacity:1;stroke:#7c7c7c;stroke-width:0.27986437;stroke-miterlimit:4;stroke-dasharray:none;stroke-opacity:1;opacity:1" />
    <path
       id="path5037"
       d="M 58.14065,85.860647 60.68589,109.3346"
       style="fill:#f9f9f9;fill-opacity:1;stroke:#7c7c7c;stroke-width:0.27986437;stroke-miterlimit:4;stroke-dasharray:none;stroke-opacity:1;opacity:1" />
    <path
       inkscape:connector-curvature="0"
       id="path5049"
       d="m 60.546875,109.33398 c 10e-7,0.71416 0.331,1.40455 0.9375,2.05469 0.6065,0.65014 1.488684,1.26725 2.619141,1.85352 2.260912,1.17253 5.514336,2.22043 9.53125,3.10156 8.033827,1.76225 19.119941,2.85156 31.365234,2.85156 12.2453,0 23.33141,-1.08931 31.36523,-2.85156 4.01692,-0.88113 7.27034,-1.92903 9.53125,-3.10156 1.13046,-0.58627 2.01265,-1.20338 2.61914,-1.85352 0.6065,-0.65014 0.9375,-1.34053 0.9375,-2.05469 h -0.27929 c 0,0.62797 -0.28917,1.24787 -0.86328,1.86329 -0.57411,0.61542 -1.43101,1.22019 -2.54297,1.79687 -2.22392,1.15335 -5.46053,2.20019 -9.46289,3.07813 -8.00473,1.75587 -19.07598,2.84375 -31.30469,2.84375 -12.228704,0 -23.299961,-1.08788 -31.304688,-2.84375 -4.002363,-0.87794 -7.238968,-1.92478 -9.46289,-3.07813 -1.111961,-0.57668 -1.96886,-1.18145 -2.542969,-1.79687 -0.574109,-0.61542 -0.86328,-1.23532 -0.863281,-1.86329 z"
       style="color:#000000;font-style:normal;font-variant:normal;font-weight:normal;font-stretch:normal;font-size:medium;line-height:normal;font-family:sans-serif;font-variant-ligatures:normal;font-variant-position:normal;font-variant-caps:normal;font-variant-numeric:normal;font-variant-alternates:normal;font-feature-settings:normal;text-indent:0;text-align:start;text-decoration:none;text-decoration-line:none;text-decoration-style:solid;text-decoration-color:#000000;letter-spacing:normal;word-spacing:normal;text-transform:none;writing-mode:lr-tb;direction:ltr;text-orientation:mixed;dominant-baseline:auto;baseline-shift:baseline;text-anchor:start;white-space:normal;shape-padding:0;clip-rule:nonzero;display:inline;overflow:visible;visibility:visible;opacity:1;isolation:auto;mix-blend-mode:normal;color-interpolation:sRGB;color-interpolation-filters:linearRGB;solid-color:#000000;solid-opacity:1;vector-effect:none;fill:#7c7c7c;fill-opacity:1;fill-rule:nonzero;stroke:none;stroke-width:0.27986437;stroke-linecap:butt;stroke-linejoin:miter;stroke-miterlimit:4;stroke-dasharray:none;stroke-dashoffset:0;stroke-opacity:1;color-rendering:auto;image-rendering:auto;shape-rendering:auto;text-rendering:auto;enable-background:accumulate" />
    <path
       inkscape:connector-curvature="0"
       id="path5051"
       d="m 151.70117,85.277344 c -0.7559,7.194677 -1.76948,16.848286 -2.52539,24.042966 l 0.27734,0.0293 c 0.75592,-7.19468 1.7695,-16.848292 2.5254,-24.042969 z"
       style="color:#000000;font-style:normal;font-variant:normal;font-weight:normal;font-stretch:normal;font-size:medium;line-height:normal;font-family:sans-serif;font-variant-ligatures:normal;font-variant-position:normal;font-variant-caps:normal;font-variant-numeric:normal;font-variant-alternates:normal;font-feature-settings:normal;text-indent:0;text-align:start;text-decoration:none;text-decoration-line:none;text-decoration-style:solid;text-decoration-color:#000000;letter-spacing:normal;word-spacing:normal;text-transform:none;writing-mode:lr-tb;direction:ltr;text-orientation:mixed;dominant-baseline:auto;baseline-shift:baseline;text-anchor:start;white-space:normal;shape-padding:0;clip-rule:nonzero;display:inline;overflow:visible;visibility:visible;opacity:1;isolation:auto;mix-blend-mode:normal;color-interpolation:sRGB;color-interpolation-filters:linearRGB;solid-color:#000000;solid-opacity:1;vector-effect:none;fill:#7c7c7c;fill-opacity:1;fill-rule:nonzero;stroke:none;stroke-width:0.27986437;stroke-linecap:butt;stroke-linejoin:miter;stroke-miterlimit:4;stroke-dasharray:none;stroke-dashoffset:0;stroke-opacity:1;color-rendering:auto;image-rendering:auto;shape-rendering:auto;text-rendering:auto;enable-background:accumulate" />
    <path
       inkscape:connector-curvature="0"
       id="path5053"
       d="m 58.279297,85.845703 -0.277344,0.0293 2.544922,23.47461 0.277344,-0.0293 z"
       style="color:#000000;font-style:normal;font-variant:normal;font-weight:normal;font-stretch:normal;font-size:medium;line-height:normal;font-family:sans-serif;font-variant-ligatures:normal;font-variant-position:normal;font-variant-caps:normal;font-variant-numeric:normal;font-variant-alternates:normal;font-feature-settings:normal;text-indent:0;text-align:start;text-decoration:none;text-decoration-line:none;text-decoration-style:solid;text-decoration-color:#000000;letter-spacing:normal;word-spacing:normal;text-transform:none;writing-mode:lr-tb;direction:ltr;text-orientation:mixed;dominant-baseline:auto;baseline-shift:baseline;text-anchor:start;white-space:normal;shape-padding:0;clip-rule:nonzero;display:inline;overflow:visible;visibility:visible;opacity:1;isolation:auto;mix-blend-mode:normal;color-interpolation:sRGB;color-interpolation-filters:linearRGB;solid-color:#000000;solid-opacity:1;vector-effect:none;fill:#7c7c7c;fill-opacity:1;fill-rule:nonzero;stroke:none;stroke-width:0.27986437;stroke-linecap:butt;stroke-linejoin:miter;stroke-miterlimit:4;stroke-dasharray:none;stroke-dashoffset:0;stroke-opacity:1;color-rendering:auto;image-rendering:auto;shape-rendering:auto;text-rendering:auto;enable-background:accumulate" />
    <path
       inkscape:connector-curvature="0"
       id="path5055"
       d="m 57.990234,85.652344 c 10e-7,0.752846 0.349701,1.479389 0.990235,2.166015 0.640533,0.686626 1.574432,1.339191 2.769531,1.958985 2.390198,1.239588 5.830035,2.349411 10.078125,3.28125 8.496179,1.863678 20.221052,3.013672 33.171875,3.013672 12.95082,0 24.67569,-1.149994 33.17188,-3.013672 4.24809,-0.931839 7.68792,-2.041662 10.07812,-3.28125 1.1951,-0.619794 2.129,-1.272358 2.76953,-1.958985 0.64053,-0.686626 0.99024,-1.413168 0.99024,-2.166015 h -0.28125 c 0,0.666656 -0.30592,1.324658 -0.91407,1.976562 -0.60814,0.651905 -1.51675,1.290189 -2.69336,1.900391 -2.3532,1.220404 -5.77622,2.327212 -10.00976,3.255859 -8.46708,1.857295 -20.17709,3.007813 -33.11133,3.007813 -12.934235,0 -24.644249,-1.150518 -33.111328,-3.007813 C 67.655133,91.856509 64.232114,90.749701 61.878906,89.529297 60.702302,88.919095 59.793689,88.280811 59.185547,87.628906 58.577404,86.977002 58.271485,86.319 58.271484,85.652344 Z"
       style="color:#000000;font-style:normal;font-variant:normal;font-weight:normal;font-stretch:normal;font-size:medium;line-height:normal;font-family:sans-serif;font-variant-ligatures:normal;font-variant-position:normal;font-variant-caps:normal;font-variant-numeric:normal;font-variant-alternates:normal;font-feature-settings:normal;text-indent:0;text-align:start;text-decoration:none;text-decoration-line:none;text-decoration-style:solid;text-decoration-color:#000000;letter-spacing:normal;word-spacing:normal;text-transform:none;writing-mode:lr-tb;direction:ltr;text-orientation:mixed;dominant-baseline:auto;baseline-shift:baseline;text-anchor:start;white-space:normal;shape-padding:0;clip-rule:nonzero;display:inline;overflow:visible;visibility:visible;opacity:1;isolation:auto;mix-blend-mode:normal;color-interpolation:sRGB;color-interpolation-filters:linearRGB;solid-color:#000000;solid-opacity:1;vector-effect:none;fill:#7c7c7c;fill-opacity:1;fill-rule:nonzero;stroke:none;stroke-width:0.27986437;stroke-linecap:butt;stroke-linejoin:miter;stroke-miterlimit:4;stroke-dasharray:none;stroke-dashoffset:0;stroke-opacity:1;color-rendering:auto;image-rendering:auto;shape-rendering:auto;text-rendering:auto;enable-background:accumulate" />
    <path
       style="color:#000000;font-style:normal;font-variant:normal;font-weight:normal;font-stretch:normal;font-size:medium;line-height:normal;font-family:sans-serif;font-variant-ligatures:normal;font-variant-position:normal;font-variant-caps:normal;font-variant-numeric:normal;font-variant-alternates:normal;font-feature-settings:normal;text-indent:0;text-align:start;text-decoration:none;text-decoration-line:none;text-decoration-style:solid;text-decoration-color:#000000;letter-spacing:normal;word-spacing:normal;text-transform:none;writing-mode:lr-tb;direction:ltr;text-orientation:mixed;dominant-baseline:auto;baseline-shift:baseline;text-anchor:start;white-space:normal;shape-padding:0;clip-rule:nonzero;display:inline;overflow:visible;visibility:visible;opacity:1;isolation:auto;mix-blend-mode:normal;color-interpolation:sRGB;color-interpolation-filters:linearRGB;solid-color:#000000;solid-opacity:1;vector-effect:none;fill:#7c7c7c;fill-opacity:1;fill-rule:nonzero;stroke:none;stroke-width:0.97866112;stroke-linecap:butt;stroke-linejoin:miter;stroke-miterlimit:4;stroke-dasharray:none;stroke-dashoffset:0;stroke-opacity:1;color-rendering:auto;image-rendering:auto;shape-rendering:auto;text-rendering:auto;enable-background:accumulate"
       d="M 396.84961 284.33594 C 347.90162 284.33594 303.58811 288.6886 271.47656 295.73242 C 255.42079 299.25433 242.42054 303.4419 233.38672 308.12695 C 228.86981 310.46948 225.33888 312.93613 222.91797 315.53125 C 220.49705 318.12637 219.17579 320.8792 219.17578 323.72461 C 219.17578 324.00642 219.19891 324.2866 219.22461 324.56641 L 219.2207 324.56641 L 219.22656 324.625 C 219.23556 324.7208 219.24551 324.8166 219.25781 324.91211 L 228.83789 413.28906 L 228.8418 413.28906 C 228.8598 415.96732 230.1072 418.55674 232.38281 420.99609 C 234.6751 423.45332 238.00866 425.78613 242.28125 428.00195 C 250.82643 432.43356 263.12265 436.39435 278.30469 439.72461 C 308.66876 446.38508 350.56819 450.50195 396.84961 450.50195 C 443.13106 450.50195 485.03244 446.38508 515.39648 439.72461 C 530.57854 436.39435 542.87475 432.43356 551.41992 428.00195 C 555.69253 425.78613 559.02611 423.45332 561.31836 420.99609 C 563.59397 418.55674 564.83937 415.96732 564.85742 413.28906 L 564.86133 413.28906 C 567.57374 387.47295 571.12263 353.68166 573.92383 327.01758 C 574.31575 325.93703 574.52539 324.83873 574.52539 323.72461 C 574.52539 320.8792 573.2041 318.12637 570.7832 315.53125 C 568.3623 312.93613 564.83137 310.46948 560.31445 308.12695 C 551.28063 303.4419 538.28038 299.25433 522.22461 295.73242 C 490.11303 288.6886 445.79759 284.33594 396.84961 284.33594 z M 396.84766 286.92383 C 443.77756 286.92383 486.26677 291.09898 516.98828 297.83789 C 532.34904 301.20734 544.76842 305.22234 553.30664 309.65039 C 557.57581 311.86442 560.87355 314.18935 563.08008 316.55469 C 564.90597 318.51193 565.96855 320.48573 566.28516 322.47852 C 566.15476 323.72014 565.98416 325.34315 565.84961 326.62305 C 565.84931 326.62593 565.84766 326.63017 565.84766 326.63281 C 565.31505 328.06364 564.3983 329.48343 563.08008 330.89648 C 560.87355 333.26183 557.57581 335.57894 553.30664 337.79297 C 544.76842 342.22102 532.34904 346.23602 516.98828 349.60547 C 488.18688 355.9232 449.04316 359.98741 405.59375 360.4707 C 402.69712 360.50283 399.78076 360.51953 396.84766 360.51953 C 349.91777 360.51953 307.43048 356.34438 276.70898 349.60547 C 261.34824 346.23602 248.92888 342.22102 240.39062 337.79297 C 239.32335 337.23946 238.31694 336.6787 237.37305 336.11328 C 236.9011 335.83057 236.44432 335.5471 236.00391 335.26172 C 233.80185 333.8348 231.99628 332.37483 230.61719 330.89648 C 228.41064 328.53115 227.30079 326.14347 227.30078 323.72461 C 227.30079 321.30575 228.41064 318.92002 230.61719 316.55469 C 232.82374 314.18935 236.1215 311.86442 240.39062 309.65039 C 248.92888 305.22235 261.34824 301.20734 276.70898 297.83789 C 307.43048 291.09898 349.91777 286.92384 396.84766 286.92383 z "
       transform="scale(0.26458333)"
       id="path5130" />
    <path
       id="path5124"
       d="m 234.25781,423.60938 -0.51758,0.0527 h -0.50976 c 0,0.0189 0.0231,0.033 0.0234,0.0508 h -0.0234 l 0.69336,6.61523 h 0.0234 c 0.0162,2.59915 1.20215,5.10968 3.41015,7.47657 2.2231,2.38307 5.46021,4.64224 9.60352,6.79101 8.28662,4.29755 20.21719,8.14754 34.93945,11.37696 29.44451,6.45879 70.06961,10.44531 114.94922,10.44531 44.87962,0 85.50669,-3.98652 114.95117,-10.44531 14.72224,-3.22942 26.65284,-7.07941 34.93945,-11.37696 4.14331,-2.14877 7.3804,-4.40794 9.60352,-6.79101 2.208,-2.36689 3.39379,-4.87742 3.41016,-7.47657 h 0.0234 c 0.46277,-4.40447 0.22168,-2.12833 0.69336,-6.61523 h -0.0234 c 1.1e-4,-0.0189 0.0234,-0.033 0.0234,-0.0508 h -0.50976 l -0.51563,-0.0527 c -0.004,0.045 -0.003,0.0226 -0.008,0.0664 -0.004,2.30619 -1.05945,4.58352 -3.16797,6.84375 -2.11313,2.26522 -5.27437,4.4907 -9.36719,6.61328 -8.18562,4.24521 -20.09654,8.09276 -34.82812,11.32422 -29.46316,6.46288 -70.21219,10.4668 -115.22266,10.4668 -45.01044,0 -85.76144,-4.00392 -115.22461,-10.4668 -14.73158,-3.23146 -26.64248,-7.07901 -34.82812,-11.32422 -4.09282,-2.12258 -7.25405,-4.34806 -9.36719,-6.61328 -2.10852,-2.26023 -3.16139,-4.53756 -3.16602,-6.84375 z"
       style="color:#000000;font-style:normal;font-variant:normal;font-weight:normal;font-stretch:normal;font-size:medium;line-height:normal;font-family:sans-serif;font-variant-ligatures:normal;font-variant-position:normal;font-variant-caps:normal;font-variant-numeric:normal;font-variant-alternates:normal;font-feature-settings:normal;text-indent:0;text-align:start;text-decoration:none;text-decoration-line:none;text-decoration-style:solid;text-decoration-color:#000000;letter-spacing:normal;word-spacing:normal;text-transform:none;writing-mode:lr-tb;direction:ltr;text-orientation:mixed;dominant-baseline:auto;baseline-shift:baseline;text-anchor:start;white-space:normal;shape-padding:0;clip-rule:nonzero;display:inline;overflow:visible;visibility:visible;opacity:1;isolation:auto;mix-blend-mode:normal;color-interpolation:sRGB;color-interpolation-filters:linearRGB;solid-color:#000000;solid-opacity:1;vector-effect:none;fill:#7c7c7c;fill-opacity:1;fill-rule:nonzero;stroke:none;stroke-width:0.97866112;stroke-linecap:butt;stroke-linejoin:miter;stroke-miterlimit:4;stroke-dasharray:none;stroke-dashoffset:0;stroke-opacity:1;color-rendering:auto;image-rendering:auto;shape-rendering:auto;text-rendering:auto;enable-background:accumulate"
       transform="scale(0.26458333)" />
    <path
       id="path5120"
       d="m 239.08398,442.92773 -0.49414,0.0527 h -0.50195 c 0,0.0189 0.0231,0.033 0.0234,0.0508 h -0.0156 l 20.41797,194.35742 h 0.0234 c 0.0185,2.21991 1.03106,4.36669 2.9082,6.37891 1.894,2.03028 4.65131,3.95348 8.17188,5.7793 7.04113,3.65159 17.16212,6.91476 29.66015,9.65624 24.99607,5.48304 59.4812,8.86524 97.57422,8.86524 38.09303,0 72.57621,-3.3822 97.57227,-8.86524 12.49803,-2.74148 22.621,-6.00465 29.66211,-9.65624 3.52059,-1.82582 6.27592,-3.74902 8.16992,-5.7793 1.87714,-2.01222 2.89182,-4.159 2.91016,-6.37891 h 0.0215 c 6.57377,-62.56879 14.04663,-133.71539 20.41797,-194.35742 h -0.0156 c 1.2e-4,-0.0189 0.0234,-0.033 0.0234,-0.0508 h -0.50195 l -0.49414,-0.0527 c -0.002,0.0151 -0.008,0.035 -0.008,0.0527 0,2.24266 -1.02781,4.45256 -3.07813,6.65039 -2.05032,2.19787 -5.1167,4.35456 -9.08789,6.41406 -7.9423,4.11901 -19.49929,7.85681 -33.79297,10.99219 -28.5874,6.2708 -68.12627,10.1582 -111.79883,10.1582 -43.67254,0 -83.21144,-3.8874 -111.79883,-10.1582 -14.29369,-3.13538 -25.8526,-6.87318 -33.79492,-10.99219 -3.97116,-2.0595 -7.03757,-4.21619 -9.08789,-6.41406 -2.05032,-2.19783 -3.07812,-4.40773 -3.07812,-6.65039 z"
       style="color:#000000;font-style:normal;font-variant:normal;font-weight:normal;font-stretch:normal;font-size:medium;line-height:normal;font-family:sans-serif;font-variant-ligatures:normal;font-variant-position:normal;font-variant-caps:normal;font-variant-numeric:normal;font-variant-alternates:normal;font-feature-settings:normal;text-indent:0;text-align:start;text-decoration:none;text-decoration-line:none;text-decoration-style:solid;text-decoration-color:#000000;letter-spacing:normal;word-spacing:normal;text-transform:none;writing-mode:lr-tb;direction:ltr;text-orientation:mixed;dominant-baseline:auto;baseline-shift:baseline;text-anchor:start;white-space:normal;shape-padding:0;clip-rule:nonzero;display:inline;overflow:visible;visibility:visible;opacity:1;isolation:auto;mix-blend-mode:normal;color-interpolation:sRGB;color-interpolation-filters:linearRGB;solid-color:#000000;solid-opacity:1;vector-effect:none;fill:#7c7c7c;fill-opacity:1;fill-rule:nonzero;stroke:none;stroke-width:0.97866112;stroke-linecap:butt;stroke-linejoin:miter;stroke-miterlimit:4;stroke-dasharray:none;stroke-dashoffset:0;stroke-opacity:1;color-rendering:auto;image-rendering:auto;shape-rendering:auto;text-rendering:auto;enable-background:accumulate"
       transform="scale(0.26458333)" />
    <path
       id="path5116"
       d="m 263.69531,651.93164 -0.48633,0.0508 h -0.48828 c 0,0.0189 0.0231,0.035 0.0234,0.0527 h -0.0234 l 9.82618,93.8164 0.29492,-0.0293 c 0.20957,1.74701 0.81701,3.46207 2.30273,5.05468 1.70658,1.82941 4.18732,3.56303 7.35352,5.20508 6.33239,3.28403 15.42943,6.21769 26.66211,8.68164 22.46535,4.92786 53.45712,7.96485 87.68945,7.96485 34.23231,0 65.22409,-3.03699 87.68945,-7.96485 11.23268,-2.46395 20.33166,-5.39761 26.66406,-8.68164 3.16619,-1.64205 5.645,-3.37567 7.35157,-5.20508 1.69156,-1.81326 2.60469,-3.75054 2.62109,-5.75781 h 0.0234 l 9.78125,-93.08398 h -0.0234 c 1.5e-4,-0.0189 0.0234,-0.035 0.0234,-0.0527 h -0.48828 l -0.48633,-0.0508 -0.008,0.0664 c -0.004,1.86795 -0.85725,3.71592 -2.57617,5.55859 -1.72362,1.84758 -4.30725,3.66554 -7.65626,5.40234 -6.69792,3.47365 -16.45672,6.63242 -28.52343,9.2793 -24.13342,5.2938 -57.51563,8.57031 -94.39063,8.57031 -36.87499,0 -70.25915,-3.27651 -94.39258,-8.57031 -12.06671,-2.64688 -21.82549,-5.80565 -28.52343,-9.2793 -3.34897,-1.7368 -5.93266,-3.55476 -7.65625,-5.40234 -1.71896,-1.84267 -2.57156,-3.69064 -2.57618,-5.55859 z"
       style="color:#000000;font-style:normal;font-variant:normal;font-weight:normal;font-stretch:normal;font-size:medium;line-height:normal;font-family:sans-serif;font-variant-ligatures:normal;font-variant-position:normal;font-variant-caps:normal;font-variant-numeric:normal;font-variant-alternates:normal;font-feature-settings:normal;text-indent:0;text-align:start;text-decoration:none;text-decoration-line:none;text-decoration-style:solid;text-decoration-color:#000000;letter-spacing:normal;word-spacing:normal;text-transform:none;writing-mode:lr-tb;direction:ltr;text-orientation:mixed;dominant-baseline:auto;baseline-shift:baseline;text-anchor:start;white-space:normal;shape-padding:0;clip-rule:nonzero;display:inline;overflow:visible;visibility:visible;opacity:1;isolation:auto;mix-blend-mode:normal;color-interpolation:sRGB;color-interpolation-filters:linearRGB;solid-color:#000000;solid-opacity:1;vector-effect:none;fill:#7c7c7c;fill-opacity:1;fill-rule:nonzero;stroke:none;stroke-width:0.97866112;stroke-linecap:butt;stroke-linejoin:miter;stroke-miterlimit:4;stroke-dasharray:none;stroke-dashoffset:0;stroke-opacity:1;color-rendering:auto;image-rendering:auto;shape-rendering:auto;text-rendering:auto;enable-background:accumulate"
       transform="scale(0.26458333)" />
  </g>
</svg>
