<?xml version="1.0" encoding="UTF-8" standalone="no"?>
<!-- Created with Inkscape (http://www.inkscape.org/) -->

<svg
   xmlns:dc="http://purl.org/dc/elements/1.1/"
   xmlns:cc="http://creativecommons.org/ns#"
   xmlns:rdf="http://www.w3.org/1999/02/22-rdf-syntax-ns#"
   xmlns:svg="http://www.w3.org/2000/svg"
   xmlns="http://www.w3.org/2000/svg"
   xmlns:sodipodi="http://sodipodi.sourceforge.net/DTD/sodipodi-0.dtd"
   xmlns:inkscape="http://www.inkscape.org/namespaces/inkscape"
   width="191.66991mm"
   height="151.27466mm"
   viewBox="0 0 191.6699 151.27466"
   version="1.1"
   id="svg8"
   inkscape:version="0.92.4 (5da689c313, 2019-01-14)"
   sodipodi:docname="game-logo.svg"
   inkscape:export-filename="C:\Users\Fabian\Desktop\7c7c7c-transparent.png"
   inkscape:export-xdpi="33.924976"
   inkscape:export-ydpi="33.924976">
  <defs
     id="defs2" />
  <sodipodi:namedview
     id="base"
     pagecolor="#ffffff"
     bordercolor="#666666"
     borderopacity="1.0"
     inkscape:pageopacity="0.0"
     inkscape:pageshadow="2"
     inkscape:zoom="0.99999999"
     inkscape:cx="452.33508"
     inkscape:cy="349.24331"
     inkscape:document-units="mm"
     inkscape:current-layer="layer1"
     showgrid="false"
     inkscape:snap-global="false"
     inkscape:snap-bbox="false"
     inkscape:object-paths="true"
     inkscape:snap-intersection-paths="true"
     inkscape:snap-smooth-nodes="true"
     inkscape:snap-midpoints="true"
     inkscape:window-width="1920"
     inkscape:window-height="1017"
     inkscape:window-x="-8"
     inkscape:window-y="-8"
     inkscape:window-maximized="1"
     inkscape:pagecheckerboard="true"
     fit-margin-top="0"
     fit-margin-left="0"
     fit-margin-right="0"
     fit-margin-bottom="0" />
  <metadata
     id="metadata5">
    <rdf:RDF>
      <cc:Work
         rdf:about="">
        <dc:format>image/svg+xml</dc:format>
        <dc:type
           rdf:resource="http://purl.org/dc/dcmitype/StillImage" />
        <dc:title></dc:title>
      </cc:Work>
    </rdf:RDF>
  </metadata>
  <g
     inkscape:label="Layer 1"
     inkscape:groupmode="layer"
     id="layer1"
     transform="translate(0.83495263,-85.967693)">
    <g
       id="g4693"
       transform="matrix(0.8,0,0,0.8,21,27.968205)"
       style="fill:#7c7c7c;fill-opacity:1" />
    <path
       id="path5039-7"
       d="m 188.13911,120.80264 c 0.75591,-7.19468 1.77022,-16.84884 2.52612,-24.043517"
       style="opacity:1;fill:#7c7c7c;fill-opacity:1;stroke:#7c7c7c;stroke-width:0.27986437;stroke-miterlimit:4;stroke-dasharray:none;stroke-opacity:1"
       inkscape:connector-curvature="0" />
    <path
       inkscape:connector-curvature="0"
       id="path5051-4"
       d="m 190.52617,96.745383 c -0.7559,7.194677 -1.76948,16.848287 -2.52539,24.042967 l 0.27734,0.0293 c 0.75592,-7.19468 1.7695,-16.84829 2.5254,-24.042967 z"
       style="color:#000000;font-style:normal;font-variant:normal;font-weight:normal;font-stretch:normal;font-size:medium;line-height:normal;font-family:sans-serif;font-variant-ligatures:normal;font-variant-position:normal;font-variant-caps:normal;font-variant-numeric:normal;font-variant-alternates:normal;font-feature-settings:normal;text-indent:0;text-align:start;text-decoration:none;text-decoration-line:none;text-decoration-style:solid;text-decoration-color:#000000;letter-spacing:normal;word-spacing:normal;text-transform:none;writing-mode:lr-tb;direction:ltr;text-orientation:mixed;dominant-baseline:auto;baseline-shift:baseline;text-anchor:start;white-space:normal;shape-padding:0;clip-rule:nonzero;display:inline;overflow:visible;visibility:visible;opacity:1;isolation:auto;mix-blend-mode:normal;color-interpolation:sRGB;color-interpolation-filters:linearRGB;solid-color:#000000;solid-opacity:1;vector-effect:none;fill:#7c7c7c;fill-opacity:1;fill-rule:nonzero;stroke:none;stroke-width:0.27986437;stroke-linecap:butt;stroke-linejoin:miter;stroke-miterlimit:4;stroke-dasharray:none;stroke-dashoffset:0;stroke-opacity:1;color-rendering:auto;image-rendering:auto;shape-rendering:auto;text-rendering:auto;enable-background:accumulate" />
    <path
       inkscape:connector-curvature="0"
       id="path5055-2"
       d="m 96.815242,97.120383 c 0,0.75285 0.3497,1.47939 0.99023,2.16602 0.64053,0.68663 1.57443,1.339187 2.769528,1.958977 2.3902,1.23959 5.83004,2.34942 10.07813,3.28125 8.49618,1.86368 20.22105,3.01368 33.17187,3.01368 12.95082,0 24.67569,-1.15 33.17188,-3.01368 4.24809,-0.93183 7.68792,-2.04166 10.07813,-3.28125 1.1951,-0.61979 2.12899,-1.272347 2.76953,-1.958977 0.64053,-0.68663 0.99024,-1.41317 0.99024,-2.16602 h -0.28125 c 0,0.66666 -0.30592,1.32466 -0.91407,1.97657 -0.60814,0.6519 -1.51676,1.290187 -2.69337,1.900387 -2.35319,1.2204 -5.77622,2.32721 -10.00976,3.25586 -8.46708,1.85729 -20.17709,3.00781 -33.11133,3.00781 -12.93423,0 -24.64425,-1.15052 -33.11133,-3.00781 -4.23354,-0.92865 -7.65655,-2.03546 -10.00976,-3.25586 -1.176608,-0.6102 -2.085218,-1.248487 -2.693358,-1.900387 -0.60814,-0.65191 -0.91406,-1.30991 -0.91406,-1.97657 z"
       style="color:#000000;font-style:normal;font-variant:normal;font-weight:normal;font-stretch:normal;font-size:medium;line-height:normal;font-family:sans-serif;font-variant-ligatures:normal;font-variant-position:normal;font-variant-caps:normal;font-variant-numeric:normal;font-variant-alternates:normal;font-feature-settings:normal;text-indent:0;text-align:start;text-decoration:none;text-decoration-line:none;text-decoration-style:solid;text-decoration-color:#000000;letter-spacing:normal;word-spacing:normal;text-transform:none;writing-mode:lr-tb;direction:ltr;text-orientation:mixed;dominant-baseline:auto;baseline-shift:baseline;text-anchor:start;white-space:normal;shape-padding:0;clip-rule:nonzero;display:inline;overflow:visible;visibility:visible;opacity:1;isolation:auto;mix-blend-mode:normal;color-interpolation:sRGB;color-interpolation-filters:linearRGB;solid-color:#000000;solid-opacity:1;vector-effect:none;fill:#7c7c7c;fill-opacity:1;fill-rule:nonzero;stroke:none;stroke-width:0.27986437;stroke-linecap:butt;stroke-linejoin:miter;stroke-miterlimit:4;stroke-dasharray:none;stroke-dashoffset:0;stroke-opacity:1;color-rendering:auto;image-rendering:auto;shape-rendering:auto;text-rendering:auto;enable-background:accumulate" />
    <path
       style="color:#000000;font-style:normal;font-variant:normal;font-weight:normal;font-stretch:normal;font-size:medium;line-height:normal;font-family:sans-serif;font-variant-ligatures:normal;font-variant-position:normal;font-variant-caps:normal;font-variant-numeric:normal;font-variant-alternates:normal;font-feature-settings:normal;text-indent:0;text-align:start;text-decoration:none;text-decoration-line:none;text-decoration-style:solid;text-decoration-color:#000000;letter-spacing:normal;word-spacing:normal;text-transform:none;writing-mode:lr-tb;direction:ltr;text-orientation:mixed;dominant-baseline:auto;baseline-shift:baseline;text-anchor:start;white-space:normal;shape-padding:0;clip-rule:nonzero;display:inline;overflow:visible;visibility:visible;opacity:1;isolation:auto;mix-blend-mode:normal;color-interpolation:sRGB;color-interpolation-filters:linearRGB;solid-color:#000000;solid-opacity:1;vector-effect:none;fill:#7c7c7c;fill-opacity:1;fill-rule:nonzero;stroke:none;stroke-width:0.25893742;stroke-linecap:butt;stroke-linejoin:miter;stroke-miterlimit:4;stroke-dasharray:none;stroke-dashoffset:0;stroke-opacity:1;color-rendering:auto;image-rendering:auto;shape-rendering:auto;text-rendering:auto;enable-background:accumulate"
       d="m 143.82495,86.698393 c -12.95082,0 -24.67544,1.15164 -33.17161,3.01532 -4.2481,0.93184 -7.68774,2.0398 -10.07794,3.27939 -1.195106,0.61979 -2.129334,1.27243 -2.769863,1.95905 -0.64053,0.68663 -0.990122,1.41498 -0.990122,2.16783 0,0.0746 0.006,0.14869 0.01291,0.22272 h -0.0011 l 0.0021,0.0155 c 0.0021,0.0253 0.0048,0.0507 0.0078,0.076 l 1.229381,11.342457 c 10.307684,0.26449 19.553584,1.29131 26.513114,2.81792 4.0642,0.8915 7.35016,1.9538 9.60923,3.12539 1.12956,0.5858 2.00208,1.20093 2.58589,1.82676 0.4831,0.51786 0.76424,1.04009 0.84801,1.56735 -0.0345,0.32851 -0.0796,0.75793 -0.11524,1.09657 -7e-5,8e-4 -5.2e-4,0.002 -5.2e-4,0.003 -0.14092,0.37857 -0.38348,0.75423 -0.73226,1.12809 -0.58381,0.62584 -1.45634,1.23891 -2.58589,1.8247 -2.25907,1.17159 -5.54503,2.23389 -9.60923,3.12539 -3.98749,0.87468 -8.72965,1.58418 -13.98674,2.08204 0.60456,0.14988 1.2222,0.29677 1.86706,0.43822 8.03383,1.76225 19.11973,2.85151 31.36501,2.85151 12.2453,0 23.33171,-1.08926 31.36553,-2.85151 4.01692,-0.88113 7.27029,-1.92909 9.5312,-3.10162 1.13046,-0.58627 2.01248,-1.20349 2.61896,-1.85363 0.6021,-0.64541 0.9316,-1.33053 0.93638,-2.03915 h 0.001 c 0.71766,-6.83052 1.65664,-15.77113 2.39779,-22.825997 0.1037,-0.2859 0.15916,-0.57649 0.15916,-0.87127 0,-0.75284 -0.34959,-1.4812 -0.99012,-2.16782 -0.64058,-0.68663 -1.57476,-1.33926 -2.76985,-1.95906 -2.39021,-1.23958 -5.82985,-2.34754 -10.07794,-3.27938 -8.49619,-1.86368 -20.22132,-3.01532 -33.17214,-3.01532 z m -5.3e-4,0.68472 c 12.41687,0 23.65881,1.10519 31.78721,2.88819 4.0642,0.8915 7.35016,1.9538 9.60923,3.12539 1.12955,0.5858 2.00156,1.20042 2.58537,1.82625 0.4831,0.51785 0.76476,1.04008 0.84853,1.56734 -0.0345,0.32852 -0.0796,0.75794 -0.11524,1.09658 -8e-5,7.9e-4 -5.3e-4,0.002 -5.3e-4,0.003 -0.14092,0.37858 -0.38399,0.75423 -0.73277,1.1281 -0.58381,0.62583 -1.45582,1.238897 -2.58537,1.824697 -2.25907,1.17158 -5.54555,2.23389 -9.60975,3.12539 -7.62037,1.67156 -17.97663,2.74688 -29.47262,2.87475 -0.7664,0.008 -1.53854,0.0129 -2.31459,0.0129 -12.41687,0 -23.65829,-1.10468 -31.78669,-2.88768 -4.0642,-0.89151 -7.35015,-1.9538 -9.60923,-3.12539 -0.28238,-0.14645 -0.54814,-0.29482 -0.79788,-0.44442 -0.12485,-0.0748 -0.24572,-0.1498 -0.36226,-0.22531 -0.58263,-0.377537 -1.06034,-0.763817 -1.425235,-1.154967 -0.583811,-0.62583 -0.877456,-1.25757 -0.877466,-1.89756 10e-6,-0.63999 0.293655,-1.27121 0.877466,-1.89704 0.583825,-0.62583 1.455835,-1.24045 2.585375,-1.82624 2.25908,-1.17159 5.54503,-2.23389 9.60923,-3.12539 8.1284,-1.78301 19.37035,-2.8882 31.78721,-2.8882 z"
       id="path5130-3"
       inkscape:connector-curvature="0" />
    <path
       style="color:#000000;font-style:normal;font-variant:normal;font-weight:normal;font-stretch:normal;font-size:medium;line-height:normal;font-family:sans-serif;font-variant-ligatures:normal;font-variant-position:normal;font-variant-caps:normal;font-variant-numeric:normal;font-variant-alternates:normal;font-feature-settings:normal;text-indent:0;text-align:start;text-decoration:none;text-decoration-line:none;text-decoration-style:solid;text-decoration-color:#000000;letter-spacing:normal;word-spacing:normal;text-transform:none;writing-mode:lr-tb;direction:ltr;text-orientation:mixed;dominant-baseline:auto;baseline-shift:baseline;text-anchor:start;white-space:normal;shape-padding:0;clip-rule:nonzero;display:inline;overflow:visible;visibility:visible;opacity:1;isolation:auto;mix-blend-mode:normal;color-interpolation:sRGB;color-interpolation-filters:linearRGB;solid-color:#000000;solid-opacity:1;vector-effect:none;fill:#7c7c7c;fill-opacity:1;fill-rule:nonzero;stroke:none;stroke-width:0.25893742;stroke-linecap:butt;stroke-linejoin:miter;stroke-miterlimit:4;stroke-dasharray:none;stroke-dashoffset:0;stroke-opacity:1;color-rendering:auto;image-rendering:auto;shape-rendering:auto;text-rendering:auto;enable-background:accumulate"
       d="m 186.84455,123.54782 c -0.001,0.0119 -8e-4,0.006 -0.002,0.0176 -10e-4,0.61018 -0.28031,1.21272 -0.83819,1.81074 -0.5591,0.59934 -1.39551,1.18817 -2.4784,1.74977 -2.16578,1.12321 -5.31721,2.1412 -9.21494,2.99619 -7.79546,1.70998 -18.57698,2.76935 -30.486,2.76935 -11.90902,0 -22.69104,-1.05937 -30.48651,-2.76935 -3.12812,-0.68617 -5.76475,-1.47827 -7.80779,-2.34456 -1.04605,0.0677 -2.11212,0.12461 -3.18844,0.17571 0.5022,0.3953 1.11146,0.77758 1.82418,1.14721 2.1925,1.13706 5.34914,2.15569 9.2444,3.01016 7.79053,1.70887 18.53926,2.76365 30.41365,2.76365 11.8744,0 22.62364,-1.05478 30.41416,-2.76365 3.89525,-0.85447 7.0519,-1.8731 9.2444,-3.01016 1.09625,-0.56853 1.95273,-1.16627 2.54093,-1.79679 0.5842,-0.62624 0.89794,-1.29048 0.90227,-1.97817 h 0.006 c 0.12245,-1.16535 0.0587,-0.56312 0.18345,-1.75028 h -0.006 c 3e-5,-0.005 0.006,-0.009 0.006,-0.0134 h -0.13487 z"
       id="path5124-3"
       inkscape:connector-curvature="0" />
    <path
       style="color:#000000;font-style:normal;font-variant:normal;font-weight:normal;font-stretch:normal;font-size:medium;line-height:normal;font-family:sans-serif;font-variant-ligatures:normal;font-variant-position:normal;font-variant-caps:normal;font-variant-numeric:normal;font-variant-alternates:normal;font-feature-settings:normal;text-indent:0;text-align:start;text-decoration:none;text-decoration-line:none;text-decoration-style:solid;text-decoration-color:#000000;letter-spacing:normal;word-spacing:normal;text-transform:none;writing-mode:lr-tb;direction:ltr;text-orientation:mixed;dominant-baseline:auto;baseline-shift:baseline;text-anchor:start;white-space:normal;shape-padding:0;clip-rule:nonzero;display:inline;overflow:visible;visibility:visible;opacity:1;isolation:auto;mix-blend-mode:normal;color-interpolation:sRGB;color-interpolation-filters:linearRGB;solid-color:#000000;solid-opacity:1;vector-effect:none;fill:#7c7c7c;fill-opacity:1;fill-rule:nonzero;stroke:none;stroke-width:0.25893742;stroke-linecap:butt;stroke-linejoin:miter;stroke-miterlimit:4;stroke-dasharray:none;stroke-dashoffset:0;stroke-opacity:1;color-rendering:auto;image-rendering:auto;shape-rendering:auto;text-rendering:auto;enable-background:accumulate"
       d="m 102.0828,128.65914 -0.13074,0.0139 h -0.13281 c 0,0.005 0.006,0.009 0.006,0.0134 h -0.004 l 1.70171,16.1985 h 32.42592 c 0,0.59805 -0.256,1.18299 -0.73949,1.75028 h 0.55552 c 0,1.1845 -1.00156,2.31696 -2.82049,3.36103 h 1.72134 c -1e-5,4.14252 -12.50398,7.64353 -29.68294,8.78861 l 2.24068,21.32531 h 0.006 c 0.005,0.58737 0.2728,1.15536 0.76946,1.68776 0.50113,0.53718 1.23066,1.04603 2.16215,1.5291 1.86296,0.96615 4.54081,1.82953 7.84758,2.55489 6.61354,1.45071 15.73773,2.34559 25.81651,2.34559 10.07878,0 19.20245,-0.89488 25.816,-2.34559 3.30677,-0.72536 5.98514,-1.58874 7.8481,-2.55489 0.93148,-0.48307 1.6605,-0.99192 2.16162,-1.5291 0.49666,-0.5324 0.76513,-1.10039 0.76998,-1.68776 h 0.006 c 1.73931,-16.55464 3.71651,-35.37887 5.40226,-51.42373 h -0.004 c 3e-5,-0.005 0.006,-0.009 0.006,-0.0134 h -0.13281 l -0.13074,-0.0139 c -5.3e-4,0.004 -0.002,0.009 -0.002,0.0139 0,0.59337 -0.27194,1.17807 -0.81442,1.75958 -0.54248,0.58152 -1.35379,1.15215 -2.4045,1.69706 -2.1014,1.08982 -5.15919,2.07878 -8.94106,2.90835 -7.56375,1.65915 -18.02507,2.68769 -29.5801,2.68769 -11.55503,0 -22.01636,-1.02854 -29.58011,-2.68769 -3.78194,-0.82957 -6.84017,-1.81853 -8.94157,-2.90835 -1.0507,-0.54491 -1.86202,-1.11554 -2.40451,-1.69706 -0.54248,-0.58151 -0.81442,-1.16621 -0.81442,-1.75958 z"
       id="path5120-78"
       inkscape:connector-curvature="0" />
    <path
       style="color:#000000;font-style:normal;font-variant:normal;font-weight:normal;font-stretch:normal;font-size:medium;line-height:normal;font-family:sans-serif;font-variant-ligatures:normal;font-variant-position:normal;font-variant-caps:normal;font-variant-numeric:normal;font-variant-alternates:normal;font-feature-settings:normal;text-indent:0;text-align:start;text-decoration:none;text-decoration-line:none;text-decoration-style:solid;text-decoration-color:#000000;letter-spacing:normal;word-spacing:normal;text-transform:none;writing-mode:lr-tb;direction:ltr;text-orientation:mixed;dominant-baseline:auto;baseline-shift:baseline;text-anchor:start;white-space:normal;shape-padding:0;clip-rule:nonzero;display:inline;overflow:visible;visibility:visible;opacity:1;isolation:auto;mix-blend-mode:normal;color-interpolation:sRGB;color-interpolation-filters:linearRGB;solid-color:#000000;solid-opacity:1;vector-effect:none;fill:#7c7c7c;fill-opacity:1;fill-rule:nonzero;stroke:none;stroke-width:0.25893742;stroke-linecap:butt;stroke-linejoin:miter;stroke-miterlimit:4;stroke-dasharray:none;stroke-dashoffset:0;stroke-opacity:1;color-rendering:auto;image-rendering:auto;shape-rendering:auto;text-rendering:auto;enable-background:accumulate"
       d="m 108.59455,183.95809 -0.12868,0.0134 h -0.12919 c 0,0.005 0.006,0.009 0.006,0.0139 h -0.006 l 2.2319,21.31033 h 17.58395 c -1e-5,2.57165 -5.70983,4.84996 -14.49576,6.26111 1.67149,0.85155 4.04404,1.61348 6.96702,2.25465 5.94394,1.30383 14.14386,2.10736 23.20116,2.10736 9.0573,0 17.25721,-0.80353 23.20117,-2.10736 2.97198,-0.65192 5.37942,-1.42813 7.05487,-2.29702 0.83772,-0.43446 1.49357,-0.89315 1.9451,-1.37718 0.44756,-0.47976 0.68917,-0.99233 0.69349,-1.52342 h 0.006 l 2.58796,-24.62847 h -0.006 c 4e-5,-0.005 0.006,-0.009 0.006,-0.0139 h -0.1295 l -0.12868,-0.0134 -0.002,0.0176 c -0.001,0.49422 -0.22682,0.98317 -0.68162,1.47071 -0.45604,0.48883 -1.13961,0.96984 -2.02571,1.42937 -1.77215,0.91907 -4.35418,1.75482 -7.54683,2.45514 -6.3853,1.40065 -15.21768,2.26756 -24.97419,2.26756 -9.75651,0 -18.5894,-0.86691 -24.9747,-2.26756 -3.19265,-0.70032 -5.77465,-1.53607 -7.54682,-2.45514 -0.88608,-0.45953 -1.56969,-0.94054 -2.02572,-1.42937 -0.45481,-0.48754 -0.68038,-0.97649 -0.68161,-1.47071 z"
       id="path5116-8"
       inkscape:connector-curvature="0" />
    <path
       id="path5037-3"
       d="M -0.68448624,96.597893 1.8607538,120.07184"
       style="opacity:1;fill:#7c7c7c;fill-opacity:1;stroke:#7c7c7c;stroke-width:0.27986437;stroke-miterlimit:4;stroke-dasharray:none;stroke-opacity:1"
       inkscape:connector-curvature="0" />
    <path
       inkscape:connector-curvature="0"
       id="path5053-7"
       d="m -0.54583924,96.582953 -0.277344,0.0293 2.54492204,23.474597 0.277344,-0.0293 z"
       style="color:#000000;font-style:normal;font-variant:normal;font-weight:normal;font-stretch:normal;font-size:medium;line-height:normal;font-family:sans-serif;font-variant-ligatures:normal;font-variant-position:normal;font-variant-caps:normal;font-variant-numeric:normal;font-variant-alternates:normal;font-feature-settings:normal;text-indent:0;text-align:start;text-decoration:none;text-decoration-line:none;text-decoration-style:solid;text-decoration-color:#000000;letter-spacing:normal;word-spacing:normal;text-transform:none;writing-mode:lr-tb;direction:ltr;text-orientation:mixed;dominant-baseline:auto;baseline-shift:baseline;text-anchor:start;white-space:normal;shape-padding:0;clip-rule:nonzero;display:inline;overflow:visible;visibility:visible;opacity:1;isolation:auto;mix-blend-mode:normal;color-interpolation:sRGB;color-interpolation-filters:linearRGB;solid-color:#000000;solid-opacity:1;vector-effect:none;fill:#7c7c7c;fill-opacity:1;fill-rule:nonzero;stroke:none;stroke-width:0.27986437;stroke-linecap:butt;stroke-linejoin:miter;stroke-miterlimit:4;stroke-dasharray:none;stroke-dashoffset:0;stroke-opacity:1;color-rendering:auto;image-rendering:auto;shape-rendering:auto;text-rendering:auto;enable-background:accumulate" />
    <path
       inkscape:connector-curvature="0"
       id="path5055-7"
       d="m -0.83490224,96.389593 c 1e-6,0.75284 0.349701,1.47939 0.990235,2.16601 0.640533,0.68663 1.57443204,1.33919 2.76953104,1.958987 2.390198,1.23958 5.830035,2.34941 10.0781252,3.28125 8.496179,1.86367 20.221054,3.01367 33.171876,3.01367 12.95082,0 24.67569,-1.15 33.171875,-3.01367 4.2481,-0.93184 7.687916,-2.04167 10.078122,-3.28125 1.1951,-0.619797 2.129,-1.272357 2.76953,-1.958987 0.64052,-0.68662 0.99024,-1.41317 0.99024,-2.16601 h -0.28125 c 0,0.66665 -0.30592,1.32465 -0.91407,1.97656 -0.60815,0.6519 -1.51675,1.29019 -2.69336,1.900387 -2.353206,1.2204 -5.776222,2.32721 -10.009762,3.25586 -8.467076,1.85729 -20.177084,3.00781 -33.111325,3.00781 -12.934236,0 -24.64425,-1.15052 -33.111329,-3.00781 -4.2335392,-0.92865 -7.6565582,-2.03546 -10.0097662,-3.25586 -1.176604,-0.610197 -2.08521704,-1.248487 -2.69335904,-1.900387 -0.608143,-0.65191 -0.914062,-1.30991 -0.914063,-1.97656 z"
       style="color:#000000;font-style:normal;font-variant:normal;font-weight:normal;font-stretch:normal;font-size:medium;line-height:normal;font-family:sans-serif;font-variant-ligatures:normal;font-variant-position:normal;font-variant-caps:normal;font-variant-numeric:normal;font-variant-alternates:normal;font-feature-settings:normal;text-indent:0;text-align:start;text-decoration:none;text-decoration-line:none;text-decoration-style:solid;text-decoration-color:#000000;letter-spacing:normal;word-spacing:normal;text-transform:none;writing-mode:lr-tb;direction:ltr;text-orientation:mixed;dominant-baseline:auto;baseline-shift:baseline;text-anchor:start;white-space:normal;shape-padding:0;clip-rule:nonzero;display:inline;overflow:visible;visibility:visible;opacity:1;isolation:auto;mix-blend-mode:normal;color-interpolation:sRGB;color-interpolation-filters:linearRGB;solid-color:#000000;solid-opacity:1;vector-effect:none;fill:#7c7c7c;fill-opacity:1;fill-rule:nonzero;stroke:none;stroke-width:0.27986437;stroke-linecap:butt;stroke-linejoin:miter;stroke-miterlimit:4;stroke-dasharray:none;stroke-dashoffset:0;stroke-opacity:1;color-rendering:auto;image-rendering:auto;shape-rendering:auto;text-rendering:auto;enable-background:accumulate" />
    <path
       style="color:#000000;font-style:normal;font-variant:normal;font-weight:normal;font-stretch:normal;font-size:medium;line-height:normal;font-family:sans-serif;font-variant-ligatures:normal;font-variant-position:normal;font-variant-caps:normal;font-variant-numeric:normal;font-variant-alternates:normal;font-feature-settings:normal;text-indent:0;text-align:start;text-decoration:none;text-decoration-line:none;text-decoration-style:solid;text-decoration-color:#000000;letter-spacing:normal;word-spacing:normal;text-transform:none;writing-mode:lr-tb;direction:ltr;text-orientation:mixed;dominant-baseline:auto;baseline-shift:baseline;text-anchor:start;white-space:normal;shape-padding:0;clip-rule:nonzero;display:inline;overflow:visible;visibility:visible;opacity:1;isolation:auto;mix-blend-mode:normal;color-interpolation:sRGB;color-interpolation-filters:linearRGB;solid-color:#000000;solid-opacity:1;vector-effect:none;fill:#7c7c7c;fill-opacity:1;fill-rule:nonzero;stroke:none;stroke-width:0.25893742;stroke-linecap:butt;stroke-linejoin:miter;stroke-miterlimit:4;stroke-dasharray:none;stroke-dashoffset:0;stroke-opacity:1;color-rendering:auto;image-rendering:auto;shape-rendering:auto;text-rendering:auto;enable-background:accumulate"
       d="m 46.174581,85.967693 c -12.950822,0 -24.675438,1.15164 -33.171619,3.01532 -4.2480886,0.93184 -7.6877396,2.0398 -10.0779376,3.27938 -1.1950988,0.6198 -2.12932377,1.27243 -2.76985673,1.95906 -0.64053481,0.68662 -0.99011739,1.41498 -0.9901203,2.16782 0,0.0746 0.006109,0.1487 0.0129196,0.22273 h -0.001032 l 0.001561,0.0155 c 0.002408,0.0254 0.004969,0.0507 0.008268,0.076 L 1.721493,120.08657 h 0.00103 c 0.0048,0.70862 0.3348048,1.39374 0.9368938,2.03915 0.606501,0.65014 1.4885056,1.26736 2.6189617,1.85363 2.2609117,1.17253 5.5142855,2.22049 9.5312015,3.10162 8.033824,1.76225 19.119718,2.85151 31.36501,2.85151 11.373662,0 21.743572,-0.94081 29.60026,-2.48667 -5.570466,-0.50021 -10.584447,-1.23646 -14.769126,-2.15439 -4.064196,-0.8915 -7.350151,-1.9538 -9.609233,-3.12539 -0.282382,-0.14645 -0.548661,-0.29482 -0.798398,-0.44442 -0.12487,-0.0748 -0.245727,-0.1498 -0.362252,-0.22531 -0.582628,-0.37754 -1.060352,-0.76382 -1.425236,-1.15497 -0.583817,-0.62583 -0.877464,-1.25757 -0.877467,-1.89756 3e-6,-0.63999 0.29365,-1.27121 0.877467,-1.89704 0.583816,-0.62583 1.456348,-1.24096 2.585886,-1.82676 2.259082,-1.17159 5.545037,-2.23389 9.609233,-3.12539 7.915455,-1.73629 18.786417,-2.82643 30.816724,-2.88251 0.418484,-3.98403 0.831202,-7.91216 1.203029,-11.451497 0.103698,-0.28589 0.159163,-0.57649 0.159163,-0.87126 0,-0.75285 -0.349592,-1.4812 -0.990122,-2.16783 -0.640569,-0.68663 -1.574757,-1.33926 -2.769856,-1.95905 -2.390196,-1.23959 -5.829848,-2.34755 -10.077937,-3.27939 -8.496183,-1.86368 -20.221318,-3.01532 -33.172135,-3.01532 z m -5.29e-4,0.68471 c 12.416872,0 23.658811,1.10468 31.787208,2.88768 4.064209,0.8915 7.350162,1.9538 9.609233,3.12539 1.129556,0.58579 2.002068,1.20093 2.585889,1.82676 0.4831,0.51786 0.764239,1.04009 0.848008,1.56735 -0.0345,0.32851 -0.07911,0.75793 -0.11472,1.09657 -6.9e-5,8e-4 -5.3e-4,0.002 -5.3e-4,0.003 -0.14093,0.37857 -0.383981,0.75422 -0.732771,1.1281 -0.583801,0.62583 -1.456343,1.2389 -2.585889,1.824687 -2.259071,1.17159 -5.545035,2.23389 -9.609233,3.12539 -7.620365,1.67157 -17.977143,2.74689 -29.473136,2.87476 -0.7664,0.008 -1.538023,0.0129 -2.314072,0.0129 -12.416866,0 -23.658293,-1.10467 -31.786689,-2.88768 -4.064197,-0.89151 -7.3501534,-1.9538 -9.6092326,-3.12539 -0.2823837,-0.146447 -0.5486627,-0.294807 -0.7984008,-0.444417 -0.1248479,-0.0748 -0.2457268,-0.1498 -0.3622516,-0.2253 -0.5826282,-0.37754 -1.06035,-0.76383 -1.4252361,-1.15497 -0.5838161,-0.62583 -0.8774639,-1.25757 -0.8774657,-1.89756 1.8e-6,-0.63999 0.2936496,-1.27122 0.8774657,-1.89704 0.5838161,-0.62583 1.4563489,-1.24097 2.5858885,-1.82676 2.2590792,-1.17159 5.5450356,-2.2339 9.6092326,-3.1254 8.128396,-1.783 19.369823,-2.88767 31.786689,-2.88767 z"
       id="path5130-0"
       inkscape:connector-curvature="0" />
    <path
       style="color:#000000;font-style:normal;font-variant:normal;font-weight:normal;font-stretch:normal;font-size:medium;line-height:normal;font-family:sans-serif;font-variant-ligatures:normal;font-variant-position:normal;font-variant-caps:normal;font-variant-numeric:normal;font-variant-alternates:normal;font-feature-settings:normal;text-indent:0;text-align:start;text-decoration:none;text-decoration-line:none;text-decoration-style:solid;text-decoration-color:#000000;letter-spacing:normal;word-spacing:normal;text-transform:none;writing-mode:lr-tb;direction:ltr;text-orientation:mixed;dominant-baseline:auto;baseline-shift:baseline;text-anchor:start;white-space:normal;shape-padding:0;clip-rule:nonzero;display:inline;overflow:visible;visibility:visible;opacity:1;isolation:auto;mix-blend-mode:normal;color-interpolation:sRGB;color-interpolation-filters:linearRGB;solid-color:#000000;solid-opacity:1;vector-effect:none;fill:#7c7c7c;fill-opacity:1;fill-rule:nonzero;stroke:none;stroke-width:0.25893742;stroke-linecap:butt;stroke-linejoin:miter;stroke-miterlimit:4;stroke-dasharray:none;stroke-dashoffset:0;stroke-opacity:1;color-rendering:auto;image-rendering:auto;shape-rendering:auto;text-rendering:auto;enable-background:accumulate"
       d="m 3.1555014,122.81712 -0.1369425,0.0139 H 2.8836833 c 0,0.005 0.0061,0.009 0.0062,0.0134 h -0.0062 l 0.1834515,1.75029 h 0.0062 c 0.0043,0.68769 0.3180705,1.35193 0.9022705,1.97817 0.5881952,0.63052 1.4446802,1.22826 2.5409302,1.79679 2.192502,1.13706 5.3491315,2.1557 9.2443965,3.01015 7.790527,1.70888 18.539251,2.76366 30.413647,2.76366 11.8744,0 22.623643,-1.05478 30.414164,-2.76366 3.895259,-0.85445 7.05191,-1.87309 9.244396,-3.01015 0.186256,-0.0966 0.363095,-0.19419 0.535368,-0.29249 -1.415309,-0.0444 -2.808009,-0.10408 -4.177522,-0.17673 -1.611963,0.5367 -3.462123,1.03728 -5.529895,1.49086 -7.795458,1.70997 -18.576975,2.76934 -30.485995,2.76934 -11.909012,0 -22.691047,-1.05937 -30.486511,-2.76934 -3.89773,-0.85499 -7.049157,-1.87299 -9.2149398,-2.9962 -1.0829171,-0.5616 -1.9192997,-1.15042 -2.4784018,-1.74976 -0.557879,-0.59802 -0.8364501,-1.20057 -0.8376751,-1.81075 z"
       id="path5124-7"
       inkscape:connector-curvature="0" />
    <path
       style="color:#000000;font-style:normal;font-variant:normal;font-weight:normal;font-stretch:normal;font-size:medium;line-height:normal;font-family:sans-serif;font-variant-ligatures:normal;font-variant-position:normal;font-variant-caps:normal;font-variant-numeric:normal;font-variant-alternates:normal;font-feature-settings:normal;text-indent:0;text-align:start;text-decoration:none;text-decoration-line:none;text-decoration-style:solid;text-decoration-color:#000000;letter-spacing:normal;word-spacing:normal;text-transform:none;writing-mode:lr-tb;direction:ltr;text-orientation:mixed;dominant-baseline:auto;baseline-shift:baseline;text-anchor:start;white-space:normal;shape-padding:0;clip-rule:nonzero;display:inline;overflow:visible;visibility:visible;opacity:1;isolation:auto;mix-blend-mode:normal;color-interpolation:sRGB;color-interpolation-filters:linearRGB;solid-color:#000000;solid-opacity:1;vector-effect:none;fill:#7c7c7c;fill-opacity:1;fill-rule:nonzero;stroke:none;stroke-width:0.25893742;stroke-linecap:butt;stroke-linejoin:miter;stroke-miterlimit:4;stroke-dasharray:none;stroke-dashoffset:0;stroke-opacity:1;color-rendering:auto;image-rendering:auto;shape-rendering:auto;text-rendering:auto;enable-background:accumulate"
       d="m 4.4324261,127.92843 -0.1307415,0.0139 H 4.1688762 c 0,0.005 0.0061,0.009 0.0062,0.0134 h -0.00414 l 5.4022547,51.42373 h 0.0062 c 0.0049,0.58736 0.2728021,1.15536 0.7694621,1.68776 0.501122,0.53718 1.230658,1.04602 2.162142,1.5291 1.862967,0.96615 4.540812,1.82954 7.847582,2.55489 6.613544,1.45071 15.737734,2.34559 25.816512,2.34559 10.078781,0 19.202456,-0.89488 25.815997,-2.34559 3.306767,-0.72535 5.985144,-1.58874 7.848097,-2.55489 0.931492,-0.48308 1.660496,-0.99192 2.161627,-1.5291 0.49666,-0.5324 0.765117,-1.1004 0.769977,-1.68776 h 0.0062 c 0.688724,-6.55524 1.411436,-13.43709 2.138887,-20.36257 -19.358298,-0.80868 -33.995849,-4.53881 -33.995857,-9.02064 h 1.721342 c -1.818674,-1.04404 -2.81998,-2.17658 -2.819982,-3.36104 h 0.555522 c -0.483489,-0.56728 -0.73949,-1.15223 -0.73949,-1.75028 h 36.763128 c 0.593019,-5.64524 1.21063,-11.52338 1.760617,-16.75815 -0.08591,-0.002 -0.170034,-0.005 -0.255799,-0.007 -0.04881,0.5327 -0.315696,1.05881 -0.804085,1.58234 -0.54248,0.58151 -1.353793,1.15214 -2.404504,1.69705 -2.101395,1.08982 -5.159187,2.07878 -8.941057,2.90835 -7.563749,1.65915 -18.025072,2.68769 -29.580106,2.68769 -11.555026,0 -22.016363,-1.02854 -29.580104,-2.68769 -3.781947,-0.82957 -6.8401694,-1.81853 -8.9415743,-2.90835 -1.050703,-0.54491 -1.8620235,-1.11554 -2.4045045,-1.69705 -0.5424794,-0.58151 -0.8144205,-1.16622 -0.8144203,-1.75959 z"
       id="path5120-7"
       inkscape:connector-curvature="0" />
    <path
       style="color:#000000;font-style:normal;font-variant:normal;font-weight:normal;font-stretch:normal;font-size:medium;line-height:normal;font-family:sans-serif;font-variant-ligatures:normal;font-variant-position:normal;font-variant-caps:normal;font-variant-numeric:normal;font-variant-alternates:normal;font-feature-settings:normal;text-indent:0;text-align:start;text-decoration:none;text-decoration-line:none;text-decoration-style:solid;text-decoration-color:#000000;letter-spacing:normal;word-spacing:normal;text-transform:none;writing-mode:lr-tb;direction:ltr;text-orientation:mixed;dominant-baseline:auto;baseline-shift:baseline;text-anchor:start;white-space:normal;shape-padding:0;clip-rule:nonzero;display:inline;overflow:visible;visibility:visible;opacity:1;isolation:auto;mix-blend-mode:normal;color-interpolation:sRGB;color-interpolation-filters:linearRGB;solid-color:#000000;solid-opacity:1;vector-effect:none;fill:#7c7c7c;fill-opacity:1;fill-rule:nonzero;stroke:none;stroke-width:0.25893742;stroke-linecap:butt;stroke-linejoin:miter;stroke-miterlimit:4;stroke-dasharray:none;stroke-dashoffset:0;stroke-opacity:1;color-rendering:auto;image-rendering:auto;shape-rendering:auto;text-rendering:auto;enable-background:accumulate"
       d="m 10.944173,183.22738 -0.128674,0.0134 h -0.129191 c 0,0.005 0.0061,0.009 0.0062,0.0139 h -0.0062 l 2.599841,24.82225 0.07803,-0.008 c 0.05545,0.46223 0.216168,0.91601 0.609265,1.33738 0.451533,0.48404 1.107893,0.94272 1.945616,1.37718 1.675445,0.86889 4.08237,1.6451 7.05435,2.29702 5.943957,1.30383 14.143866,2.10737 23.201169,2.10737 9.057299,0 17.257207,-0.80354 23.201167,-2.10737 1.696522,-0.37214 3.201495,-0.78626 4.498951,-1.23352 -9.878766,-1.37556 -16.440853,-3.79484 -16.440859,-6.55153 H 79.34723 l 2.316139,-22.04104 h -0.0062 c 4e-5,-0.005 0.0062,-0.009 0.0062,-0.0139 h -0.129191 l -0.128674,-0.0134 -0.0021,0.0176 c -0.0011,0.49423 -0.226822,0.98317 -0.681612,1.47071 -0.456049,0.48884 -1.139626,0.96985 -2.025716,1.42937 -1.772161,0.91907 -4.354176,1.75483 -7.546824,2.45515 -6.385303,1.40065 -15.217677,2.26756 -24.974187,2.26756 -9.756508,0 -18.5894,-0.86691 -24.974703,-2.26756 -3.192651,-0.70032 -5.774661,-1.53608 -7.546826,-2.45515 -0.886081,-0.45952 -1.569683,-0.94053 -2.025716,-1.42937 -0.454808,-0.48754 -0.68039,-0.97648 -0.681612,-1.47071 z"
       id="path5116-4"
       inkscape:connector-curvature="0" />
    <path
       id="path5039"
       d="m 137.10724,142.12621 c 0.75591,-7.19468 1.77022,-16.84885 2.52612,-24.04353"
       style="opacity:1;fill:#7c7c7c;fill-opacity:1;stroke:#7c7c7c;stroke-width:0.27986437;stroke-miterlimit:4;stroke-dasharray:none;stroke-opacity:1"
       inkscape:connector-curvature="0" />
    <path
       id="path5037"
       d="m 45.933782,118.65225 2.54524,23.47396"
       style="opacity:1;fill:#7c7c7c;fill-opacity:1;stroke:#7c7c7c;stroke-width:0.27986437;stroke-miterlimit:4;stroke-dasharray:none;stroke-opacity:1"
       inkscape:connector-curvature="0" />
    <path
       inkscape:connector-curvature="0"
       id="path5051"
       d="m 139.4943,118.06895 c -0.7559,7.19468 -1.76948,16.84829 -2.52539,24.04297 l 0.27734,0.0293 c 0.75592,-7.19468 1.7695,-16.8483 2.5254,-24.04297 z"
       style="color:#000000;font-style:normal;font-variant:normal;font-weight:normal;font-stretch:normal;font-size:medium;line-height:normal;font-family:sans-serif;font-variant-ligatures:normal;font-variant-position:normal;font-variant-caps:normal;font-variant-numeric:normal;font-variant-alternates:normal;font-feature-settings:normal;text-indent:0;text-align:start;text-decoration:none;text-decoration-line:none;text-decoration-style:solid;text-decoration-color:#000000;letter-spacing:normal;word-spacing:normal;text-transform:none;writing-mode:lr-tb;direction:ltr;text-orientation:mixed;dominant-baseline:auto;baseline-shift:baseline;text-anchor:start;white-space:normal;shape-padding:0;clip-rule:nonzero;display:inline;overflow:visible;visibility:visible;opacity:1;isolation:auto;mix-blend-mode:normal;color-interpolation:sRGB;color-interpolation-filters:linearRGB;solid-color:#000000;solid-opacity:1;vector-effect:none;fill:#7c7c7c;fill-opacity:1;fill-rule:nonzero;stroke:none;stroke-width:0.27986437;stroke-linecap:butt;stroke-linejoin:miter;stroke-miterlimit:4;stroke-dasharray:none;stroke-dashoffset:0;stroke-opacity:1;color-rendering:auto;image-rendering:auto;shape-rendering:auto;text-rendering:auto;enable-background:accumulate" />
    <path
       inkscape:connector-curvature="0"
       id="path5053"
       d="m 46.072429,118.63731 -0.277344,0.0293 2.544922,23.47461 0.277344,-0.0293 z"
       style="color:#000000;font-style:normal;font-variant:normal;font-weight:normal;font-stretch:normal;font-size:medium;line-height:normal;font-family:sans-serif;font-variant-ligatures:normal;font-variant-position:normal;font-variant-caps:normal;font-variant-numeric:normal;font-variant-alternates:normal;font-feature-settings:normal;text-indent:0;text-align:start;text-decoration:none;text-decoration-line:none;text-decoration-style:solid;text-decoration-color:#000000;letter-spacing:normal;word-spacing:normal;text-transform:none;writing-mode:lr-tb;direction:ltr;text-orientation:mixed;dominant-baseline:auto;baseline-shift:baseline;text-anchor:start;white-space:normal;shape-padding:0;clip-rule:nonzero;display:inline;overflow:visible;visibility:visible;opacity:1;isolation:auto;mix-blend-mode:normal;color-interpolation:sRGB;color-interpolation-filters:linearRGB;solid-color:#000000;solid-opacity:1;vector-effect:none;fill:#7c7c7c;fill-opacity:1;fill-rule:nonzero;stroke:none;stroke-width:0.27986437;stroke-linecap:butt;stroke-linejoin:miter;stroke-miterlimit:4;stroke-dasharray:none;stroke-dashoffset:0;stroke-opacity:1;color-rendering:auto;image-rendering:auto;shape-rendering:auto;text-rendering:auto;enable-background:accumulate" />
    <path
       inkscape:connector-curvature="0"
       id="path5055"
       d="m 45.783366,118.44395 c 10e-7,0.75285 0.349701,1.47939 0.990235,2.16601 0.640533,0.68663 1.574432,1.3392 2.769531,1.95899 2.390198,1.23959 5.830035,2.34941 10.078125,3.28125 8.496179,1.86368 20.221052,3.01367 33.171875,3.01367 12.950818,0 24.675688,-1.14999 33.171878,-3.01367 4.24809,-0.93184 7.68792,-2.04166 10.07812,-3.28125 1.1951,-0.61979 2.129,-1.27236 2.76953,-1.95899 0.64053,-0.68662 0.99024,-1.41316 0.99024,-2.16601 h -0.28125 c 0,0.66666 -0.30592,1.32466 -0.91407,1.97656 -0.60814,0.65191 -1.51675,1.29019 -2.69336,1.90039 -2.3532,1.22041 -5.77622,2.32721 -10.00976,3.25586 -8.46708,1.8573 -20.17709,3.00781 -33.111328,3.00781 -12.934235,0 -24.644249,-1.15051 -33.111328,-3.00781 -4.233539,-0.92865 -7.656558,-2.03545 -10.009766,-3.25586 -1.176604,-0.6102 -2.085217,-1.24848 -2.693359,-1.90039 -0.608143,-0.6519 -0.914062,-1.3099 -0.914063,-1.97656 z"
       style="color:#000000;font-style:normal;font-variant:normal;font-weight:normal;font-stretch:normal;font-size:medium;line-height:normal;font-family:sans-serif;font-variant-ligatures:normal;font-variant-position:normal;font-variant-caps:normal;font-variant-numeric:normal;font-variant-alternates:normal;font-feature-settings:normal;text-indent:0;text-align:start;text-decoration:none;text-decoration-line:none;text-decoration-style:solid;text-decoration-color:#000000;letter-spacing:normal;word-spacing:normal;text-transform:none;writing-mode:lr-tb;direction:ltr;text-orientation:mixed;dominant-baseline:auto;baseline-shift:baseline;text-anchor:start;white-space:normal;shape-padding:0;clip-rule:nonzero;display:inline;overflow:visible;visibility:visible;opacity:1;isolation:auto;mix-blend-mode:normal;color-interpolation:sRGB;color-interpolation-filters:linearRGB;solid-color:#000000;solid-opacity:1;vector-effect:none;fill:#7c7c7c;fill-opacity:1;fill-rule:nonzero;stroke:none;stroke-width:0.27986437;stroke-linecap:butt;stroke-linejoin:miter;stroke-miterlimit:4;stroke-dasharray:none;stroke-dashoffset:0;stroke-opacity:1;color-rendering:auto;image-rendering:auto;shape-rendering:auto;text-rendering:auto;enable-background:accumulate" />
    <path
       id="path5116"
       d="m 57.562515,205.28185 -0.128675,0.0134 h -0.12919 c 0,0.005 0.0061,0.009 0.0062,0.0139 h -0.0062 l 2.599843,24.82226 0.07803,-0.008 c 0.05545,0.46223 0.216167,0.916 0.609264,1.33738 0.451533,0.48403 1.107895,0.94272 1.945619,1.37718 1.675445,0.8689 4.08237,1.6451 7.05435,2.29702 5.943957,1.30383 14.143862,2.10736 23.201166,2.10736 9.057298,0 17.257208,-0.80353 23.201168,-2.10736 2.97198,-0.65192 5.37942,-1.42812 7.05487,-2.29702 0.83772,-0.43446 1.49357,-0.89315 1.9451,-1.37718 0.44756,-0.47976 0.68916,-0.99233 0.6935,-1.52342 h 0.006 l 2.58796,-24.62847 h -0.006 c 4e-5,-0.005 0.006,-0.009 0.006,-0.0139 h -0.1292 l -0.12867,-0.0134 -0.002,0.0176 c -0.001,0.49422 -0.22681,0.98317 -0.68161,1.47071 -0.45604,0.48884 -1.13963,0.96984 -2.02572,1.42937 -1.77216,0.91907 -4.35417,1.75482 -7.54682,2.45514 -6.3853,1.40065 -15.21768,2.26756 -24.974193,2.26756 -9.756507,0 -18.589399,-0.86691 -24.974703,-2.26756 -3.19265,-0.70032 -5.774661,-1.53607 -7.546824,-2.45514 -0.886081,-0.45953 -1.569683,-0.94053 -2.025716,-1.42937 -0.454808,-0.48754 -0.680392,-0.97649 -0.681614,-1.47071 z"
       style="color:#000000;font-style:normal;font-variant:normal;font-weight:normal;font-stretch:normal;font-size:medium;line-height:normal;font-family:sans-serif;font-variant-ligatures:normal;font-variant-position:normal;font-variant-caps:normal;font-variant-numeric:normal;font-variant-alternates:normal;font-feature-settings:normal;text-indent:0;text-align:start;text-decoration:none;text-decoration-line:none;text-decoration-style:solid;text-decoration-color:#000000;letter-spacing:normal;word-spacing:normal;text-transform:none;writing-mode:lr-tb;direction:ltr;text-orientation:mixed;dominant-baseline:auto;baseline-shift:baseline;text-anchor:start;white-space:normal;shape-padding:0;clip-rule:nonzero;display:inline;overflow:visible;visibility:visible;opacity:1;isolation:auto;mix-blend-mode:normal;color-interpolation:sRGB;color-interpolation-filters:linearRGB;solid-color:#000000;solid-opacity:1;vector-effect:none;fill:#7c7c7c;fill-opacity:1;fill-rule:nonzero;stroke:none;stroke-width:0.25893742;stroke-linecap:butt;stroke-linejoin:miter;stroke-miterlimit:4;stroke-dasharray:none;stroke-dashoffset:0;stroke-opacity:1;color-rendering:auto;image-rendering:auto;shape-rendering:auto;text-rendering:auto;enable-background:accumulate"
       inkscape:connector-curvature="0" />
    <path
       id="path5124"
       d="m 49.773843,144.87159 -0.136943,0.0139 h -0.134874 c 0,0.005 0.0061,0.009 0.0062,0.0134 h -0.0062 l 0.183452,1.75028 h 0.0062 c 0.0043,0.68769 0.318069,1.35194 0.902269,1.97818 0.588195,0.63052 1.444681,1.22826 2.540931,1.79678 2.192502,1.13706 5.349132,2.15571 9.244396,3.01016 7.790527,1.70889 18.539251,2.76365 30.413648,2.76365 11.874408,0 22.623648,-1.05476 30.414168,-2.76365 3.89526,-0.85445 7.0519,-1.8731 9.2444,-3.01016 1.09625,-0.56852 1.95273,-1.16626 2.54093,-1.79678 0.5842,-0.62624 0.89794,-1.29049 0.90227,-1.97818 h 0.006 c 0.12244,-1.16535 0.0587,-0.56312 0.18345,-1.75028 h -0.006 c 3e-5,-0.005 0.006,-0.009 0.006,-0.0134 h -0.13487 l -0.13643,-0.0139 c -0.001,0.0119 -7.9e-4,0.006 -0.002,0.0176 -0.001,0.61018 -0.28031,1.21273 -0.83819,1.81075 -0.5591,0.59934 -1.39551,1.18816 -2.4784,1.74976 -2.16578,1.12321 -5.31721,2.14121 -9.21494,2.9962 -7.79546,1.70997 -18.57698,2.76934 -30.486001,2.76934 -11.909012,0 -22.691047,-1.05937 -30.486511,-2.76934 -3.89773,-0.85499 -7.049156,-1.87299 -9.21494,-2.9962 -1.082891,-0.5616 -1.9193,-1.15042 -2.478402,-1.74976 -0.557879,-0.59802 -0.836451,-1.20057 -0.837676,-1.81075 z"
       style="color:#000000;font-style:normal;font-variant:normal;font-weight:normal;font-stretch:normal;font-size:medium;line-height:normal;font-family:sans-serif;font-variant-ligatures:normal;font-variant-position:normal;font-variant-caps:normal;font-variant-numeric:normal;font-variant-alternates:normal;font-feature-settings:normal;text-indent:0;text-align:start;text-decoration:none;text-decoration-line:none;text-decoration-style:solid;text-decoration-color:#000000;letter-spacing:normal;word-spacing:normal;text-transform:none;writing-mode:lr-tb;direction:ltr;text-orientation:mixed;dominant-baseline:auto;baseline-shift:baseline;text-anchor:start;white-space:normal;shape-padding:0;clip-rule:nonzero;display:inline;overflow:visible;visibility:visible;opacity:1;isolation:auto;mix-blend-mode:normal;color-interpolation:sRGB;color-interpolation-filters:linearRGB;solid-color:#000000;solid-opacity:1;vector-effect:none;fill:#7c7c7c;fill-opacity:1;fill-rule:nonzero;stroke:none;stroke-width:0.25893742;stroke-linecap:butt;stroke-linejoin:miter;stroke-miterlimit:4;stroke-dasharray:none;stroke-dashoffset:0;stroke-opacity:1;color-rendering:auto;image-rendering:auto;shape-rendering:auto;text-rendering:auto;enable-background:accumulate"
       inkscape:connector-curvature="0" />
    <path
       style="color:#000000;font-style:normal;font-variant:normal;font-weight:normal;font-stretch:normal;font-size:medium;line-height:normal;font-family:sans-serif;font-variant-ligatures:normal;font-variant-position:normal;font-variant-caps:normal;font-variant-numeric:normal;font-variant-alternates:normal;font-feature-settings:normal;text-indent:0;text-align:start;text-decoration:none;text-decoration-line:none;text-decoration-style:solid;text-decoration-color:#000000;letter-spacing:normal;word-spacing:normal;text-transform:none;writing-mode:lr-tb;direction:ltr;text-orientation:mixed;dominant-baseline:auto;baseline-shift:baseline;text-anchor:start;white-space:normal;shape-padding:0;clip-rule:nonzero;display:inline;overflow:visible;visibility:visible;opacity:1;isolation:auto;mix-blend-mode:normal;color-interpolation:sRGB;color-interpolation-filters:linearRGB;solid-color:#000000;solid-opacity:1;vector-effect:none;fill:#7c7c7c;fill-opacity:1;fill-rule:nonzero;stroke:none;stroke-width:0.25893742;stroke-linecap:butt;stroke-linejoin:miter;stroke-miterlimit:4;stroke-dasharray:none;stroke-dashoffset:0;stroke-opacity:1;color-rendering:auto;image-rendering:auto;shape-rendering:auto;text-rendering:auto;enable-background:accumulate"
       d="m 92.792581,108.02216 c -12.950822,0 -24.675438,1.15164 -33.171619,3.01531 -4.248089,0.93184 -7.687738,2.0398 -10.077936,3.27939 -1.1951,0.61979 -2.129325,1.27243 -2.769857,1.95905 -0.640535,0.68663 -0.990119,1.41498 -0.990121,2.16783 0,0.0746 0.0061,0.14869 0.01291,0.22273 h -0.0011 l 0.0016,0.0155 c 0.0024,0.0254 0.005,0.0507 0.0083,0.076 l 2.534729,23.38306 h 0.0011 c 0.0048,0.70863 0.334804,1.39374 0.936893,2.03916 0.606501,0.65014 1.488506,1.26736 2.618962,1.85363 2.260912,1.17253 5.514287,2.22049 9.531202,3.10162 8.033826,1.76225 19.119717,2.8515 31.365009,2.8515 12.245307,0 23.331717,-1.08925 31.365537,-2.8515 4.01692,-0.88113 7.27029,-1.92909 9.5312,-3.10162 1.13046,-0.58627 2.01247,-1.20349 2.61896,-1.85363 0.60209,-0.64542 0.9316,-1.33053 0.93638,-2.03916 h 0.001 c 0.71765,-6.83051 1.65663,-15.77112 2.39778,-22.82599 0.1037,-0.2859 0.15917,-0.57649 0.15917,-0.87127 0,-0.75284 -0.3496,-1.4812 -0.99013,-2.16782 -0.64053,-0.68663 -1.57475,-1.33926 -2.76985,-1.95906 -2.3902,-1.23958 -5.82985,-2.34754 -10.07794,-3.27938 -8.49619,-1.86368 -20.22131,-3.01532 -33.172143,-3.01532 z m -5.29e-4,0.68471 c 12.416878,0 23.658808,1.10467 31.787208,2.88768 4.0642,0.8915 7.35016,1.9538 9.60924,3.12539 1.12955,0.58579 2.00207,1.20093 2.58588,1.82676 0.4831,0.51785 0.76425,1.04009 0.84802,1.56735 -0.0345,0.32851 -0.0796,0.75793 -0.11524,1.09657 -8e-5,7.9e-4 -5.3e-4,0.002 -5.3e-4,0.003 -0.14092,0.37857 -0.38348,0.75422 -0.73226,1.12809 -0.58381,0.62583 -1.45634,1.2389 -2.58589,1.8247 -2.25907,1.17159 -5.54503,2.23389 -9.60923,3.12539 -7.62037,1.67156 -17.97715,2.74689 -29.473141,2.87476 -0.7664,0.008 -1.538021,0.0129 -2.31407,0.0129 -12.416867,0 -23.658295,-1.10468 -31.786692,-2.88768 -4.064196,-0.8915 -7.350151,-1.9538 -9.609233,-3.12539 -0.282382,-0.14645 -0.548661,-0.29482 -0.798398,-0.44442 -0.124871,-0.0748 -0.245727,-0.1498 -0.362252,-0.22531 -0.582628,-0.37754 -1.060352,-0.76382 -1.425236,-1.15497 -0.583817,-0.62582 -0.877465,-1.25756 -0.877467,-1.89755 2e-6,-0.63999 0.29365,-1.27122 0.877467,-1.89704 0.583816,-0.62583 1.456348,-1.24097 2.585886,-1.82677 2.259082,-1.17158 5.545037,-2.23389 9.609233,-3.12539 8.128397,-1.783 19.369825,-2.88767 31.786692,-2.88768 z"
       id="path5130"
       inkscape:connector-curvature="0" />
    <path
       id="path5120"
       d="m 51.050768,149.9829 -0.130742,0.0139 h -0.132807 c 0,0.005 0.0061,0.009 0.0062,0.0134 h -0.0041 l 5.402254,51.42374 h 0.0062 c 0.0049,0.58735 0.272802,1.15535 0.769462,1.68775 0.50112,0.53718 1.230659,1.04603 2.162143,1.52911 1.862965,0.96615 4.540811,1.82953 7.847581,2.55488 6.613543,1.45072 15.737734,2.34559 25.816512,2.34559 10.078789,0 19.202459,-0.89487 25.816009,-2.34559 3.30677,-0.72535 5.98513,-1.58873 7.84809,-2.55488 0.93149,-0.48308 1.6605,-0.99193 2.16162,-1.52911 0.49666,-0.5324 0.76513,-1.1004 0.76998,-1.68775 h 0.006 c 1.73931,-16.55466 3.7165,-35.37887 5.40226,-51.42374 h -0.004 c 4e-5,-0.005 0.006,-0.009 0.006,-0.0134 h -0.13281 l -0.13074,-0.0139 c -5.3e-4,0.004 -0.002,0.009 -0.002,0.0139 0,0.59337 -0.27194,1.17808 -0.81442,1.75959 -0.54248,0.58152 -1.35379,1.15214 -2.40451,1.69705 -2.1014,1.08982 -5.15917,2.07878 -8.94104,2.90835 -7.56375,1.65915 -18.02508,2.68769 -29.580117,2.68769 -11.555026,0 -22.016359,-1.02854 -29.580106,-2.68769 -3.781872,-0.82957 -6.840167,-1.81853 -8.941573,-2.90835 -1.050703,-0.54491 -1.862024,-1.11553 -2.404504,-1.69705 -0.54248,-0.58151 -0.814419,-1.16622 -0.814419,-1.75959 z"
       style="color:#000000;font-style:normal;font-variant:normal;font-weight:normal;font-stretch:normal;font-size:medium;line-height:normal;font-family:sans-serif;font-variant-ligatures:normal;font-variant-position:normal;font-variant-caps:normal;font-variant-numeric:normal;font-variant-alternates:normal;font-feature-settings:normal;text-indent:0;text-align:start;text-decoration:none;text-decoration-line:none;text-decoration-style:solid;text-decoration-color:#000000;letter-spacing:normal;word-spacing:normal;text-transform:none;writing-mode:lr-tb;direction:ltr;text-orientation:mixed;dominant-baseline:auto;baseline-shift:baseline;text-anchor:start;white-space:normal;shape-padding:0;clip-rule:nonzero;display:inline;overflow:visible;visibility:visible;opacity:1;isolation:auto;mix-blend-mode:normal;color-interpolation:sRGB;color-interpolation-filters:linearRGB;solid-color:#000000;solid-opacity:1;vector-effect:none;fill:#7c7c7c;fill-opacity:1;fill-rule:nonzero;stroke:none;stroke-width:0.25893742;stroke-linecap:butt;stroke-linejoin:miter;stroke-miterlimit:4;stroke-dasharray:none;stroke-dashoffset:0;stroke-opacity:1;color-rendering:auto;image-rendering:auto;shape-rendering:auto;text-rendering:auto;enable-background:accumulate"
       inkscape:connector-curvature="0" />
  </g>
</svg>
