<?xml version="1.0" encoding="UTF-8" standalone="no"?>
<!-- Created with Inkscape (http://www.inkscape.org/) -->

<svg
   xmlns:dc="http://purl.org/dc/elements/1.1/"
   xmlns:cc="http://creativecommons.org/ns#"
   xmlns:rdf="http://www.w3.org/1999/02/22-rdf-syntax-ns#"
   xmlns:svg="http://www.w3.org/2000/svg"
   xmlns="http://www.w3.org/2000/svg"
   xmlns:sodipodi="http://sodipodi.sourceforge.net/DTD/sodipodi-0.dtd"
   xmlns:inkscape="http://www.inkscape.org/namespaces/inkscape"
   width="72.886917mm"
   height="72.887436mm"
   viewBox="0 0 72.886917 72.887436"
   version="1.1"
   id="svg8"
   inkscape:version="0.92.4 (5da689c313, 2019-01-14)"
   sodipodi:docname="settings.svg">
  <defs
     id="defs2" />
  <sodipodi:namedview
     id="base"
     pagecolor="#ffffff"
     bordercolor="#666666"
     borderopacity="1.0"
     inkscape:pageopacity="0.0"
     inkscape:pageshadow="2"
     inkscape:zoom="1.979899"
     inkscape:cx="55.915621"
     inkscape:cy="115.47119"
     inkscape:document-units="mm"
     inkscape:current-layer="layer1"
     showgrid="false"
     fit-margin-top="0"
     fit-margin-left="0"
     fit-margin-right="0"
     fit-margin-bottom="0"
     inkscape:pagecheckerboard="true"
     inkscape:window-width="1920"
     inkscape:window-height="1017"
     inkscape:window-x="-8"
     inkscape:window-y="-8"
     inkscape:window-maximized="1" />
  <metadata
     id="metadata5">
    <rdf:RDF>
      <cc:Work
         rdf:about="">
        <dc:format>image/svg+xml</dc:format>
        <dc:type
           rdf:resource="http://purl.org/dc/dcmitype/StillImage" />
        <dc:title></dc:title>
      </cc:Work>
    </rdf:RDF>
  </metadata>
  <g
     inkscape:label="Layer 1"
     inkscape:groupmode="layer"
     id="layer1"
     transform="translate(-68.556591,-112.05626)">
    <path
       style="fill:#7c7c7c;fill-opacity:1;stroke:#7c7c7c;stroke-width:1.31210017;stroke-miterlimit:4;stroke-dasharray:none;stroke-opacity:1"
       d="m 372.56445,424.17578 v 31.40039 a 108.57142,108.57142 0 0 0 -33.32812,13.72461 L 317.08984,447.1543 282.74609,481.5 l 22.19922,22.20117 a 108.57142,108.57142 0 0 0 -13.80859,33.27344 h -31.36914 v 48.57031 h 31.40039 a 108.57142,108.57142 0 0 0 13.72265,33.33008 l -22.14453,22.14453 34.34375,34.3457 22.20118,-22.20117 a 108.57142,108.57142 0 0 0 33.27343,13.81055 v 31.36914 h 48.57227 v -31.40039 a 108.57142,108.57142 0 0 0 33.32812,-13.72266 l 22.14454,22.14453 34.3457,-34.3457 -22.19922,-22.19922 a 108.57142,108.57142 0 0 0 13.80859,-33.27539 h 31.36914 V 536.97461 H 502.5332 A 108.57142,108.57142 0 0 0 488.81055,503.64453 L 510.95508,481.5 476.60938,447.1543 454.4082,469.35547 a 108.57142,108.57142 0 0 0 -33.27148,-13.80859 v -31.3711 z m 24.28516,49.20117 a 87.883272,87.883272 0 0 1 87.88477,87.88282 87.883272,87.883272 0 0 1 -87.88477,87.88281 87.883272,87.883272 0 0 1 -87.88281,-87.88281 87.883272,87.883272 0 0 1 87.88281,-87.88282 z"
       transform="scale(0.26458333)"
       id="rect829"
       inkscape:connector-curvature="0" />
  </g>
</svg>
